<?xml version="1.0" encoding="UTF-8" standalone="no"?>
<svg
   xmlns:dc="http://purl.org/dc/elements/1.1/"
   xmlns:cc="http://creativecommons.org/ns#"
   xmlns:rdf="http://www.w3.org/1999/02/22-rdf-syntax-ns#"
   xmlns:svg="http://www.w3.org/2000/svg"
   xmlns="http://www.w3.org/2000/svg"
   xmlns:sodipodi="http://sodipodi.sourceforge.net/DTD/sodipodi-0.dtd"
   xmlns:inkscape="http://www.inkscape.org/namespaces/inkscape"
   width="210mm"
   height="297mm"
   viewBox="0 0 210 297"
   version="1.1"
   id="svg8"
   inkscape:version="1.0.2 (e86c870879, 2021-01-15, custom)"
   sodipodi:docname="symb.svg">
  <defs
     id="defs2">
    <clipPath
       clipPathUnits="userSpaceOnUse"
       id="clipPath1077">
      <rect
         style="opacity:1;fill:none;stroke:#000000;stroke-width:0.61771387;stroke-miterlimit:4;stroke-dasharray:none;stroke-opacity:1"
         id="rect1079"
         width="114.1488"
         height="94.494049"
         x="-499.68451"
         y="132.20238" />
    </clipPath>
    <clipPath
       clipPathUnits="userSpaceOnUse"
       id="clipPath1077-3">
      <rect
         style="opacity:1;fill:none;stroke:#000000;stroke-width:0.61771387;stroke-miterlimit:4;stroke-dasharray:none;stroke-opacity:1"
         id="rect1079-1"
         width="114.1488"
         height="94.494049"
         x="-499.68451"
         y="132.20238" />
    </clipPath>
    <clipPath
       clipPathUnits="userSpaceOnUse"
       id="clipPath1077-38">
      <rect
         style="opacity:1;fill:none;stroke:#000000;stroke-width:0.61771387;stroke-miterlimit:4;stroke-dasharray:none;stroke-opacity:1"
         id="rect1079-3"
         width="114.1488"
         height="94.494049"
         x="-499.68451"
         y="132.20238" />
    </clipPath>
  </defs>
  <sodipodi:namedview
     id="base"
     pagecolor="#ffffff"
     bordercolor="#666666"
     borderopacity="1.0"
     inkscape:pageopacity="0.0"
     inkscape:pageshadow="2"
     inkscape:zoom="0.49497475"
     inkscape:cx="176.84287"
     inkscape:cy="637.23174"
     inkscape:document-units="mm"
     inkscape:current-layer="layer1"
     showgrid="false"
     inkscape:window-width="1920"
     inkscape:window-height="1013"
     inkscape:window-x="-9"
     inkscape:window-y="-9"
     inkscape:window-maximized="1"
     inkscape:document-rotation="0" />
  <metadata
     id="metadata5">
    <rdf:RDF>
      <cc:Work
         rdf:about="">
        <dc:format>image/svg+xml</dc:format>
        <dc:type
           rdf:resource="http://purl.org/dc/dcmitype/StillImage" />
        <dc:title></dc:title>
      </cc:Work>
    </rdf:RDF>
  </metadata>
  <g
     inkscape:label="Calque 1"
     inkscape:groupmode="layer"
     id="layer1">
    <path
       style="display:none;fill:#000000;stroke-width:0.264583"
       d="m -219.28925,-26.427705 c -4.459,-1.47859 -8.32419,-5.79333 -10.82165,-12.08034 -1.24443,-3.13267 -2.86495,-9.48416 -1.7564,-6.88405 0.33183,0.77829 0.34009,0.78111 0.49976,0.17056 0.0912,-0.34889 0.31487,-0.57317 0.51055,-0.51202 0.19152,0.0598 1.18165,1.78056 2.2003,3.82383 3.38874,6.79736 5.56825,8.83088 9.45035,8.81731 2.23661,-0.008 3.60497,-0.67332 5.59796,-2.72255 3.70388,-3.80839 6.45687,-10.46633 7.75491,-18.75481 0.70984,-4.53252 0.63242,-14.33446 -0.14585,-18.46891 -0.75172,-3.99335 -0.86229,-4.69472 -0.67931,-4.30902 0.1146,0.24156 0.27019,0.24761 0.62763,0.0244 0.75975,-0.47447 1.29232,-0.0695 1.99334,1.51558 6.52603,14.75652 4.19552,37.35201 -4.77806,46.32558 -3.05494,3.05494 -6.98713,4.2039 -10.45353,3.05446 z m -32.38619,-43.97784 c -5.45312,-0.56043 -10.7292,-1.91002 -14.77524,-3.7794 -4.30173,-1.98752 -8.27785,-5.32938 -9.63941,-8.10176 -0.63875,-1.30059 -0.72077,-1.76871 -0.72077,-4.11344 0,-2.4439 0.0606,-2.75557 0.79375,-4.08368 2.18148,-3.95167 6.94798,-7.33744 13.57912,-9.645595 2.9498,-1.02675 5.17188,-1.43889 5.43784,-1.00857 0.36358,0.58829 -0.23159,1.11751 -2.15933,1.920035 -4.87062,2.02764 -8.47271,4.67994 -9.73269,7.16638 -0.83054,1.639 -0.87163,4.06271 -0.0978,5.76852 2.44374,5.38686 11.55873,9.86451 22.67218,11.13748 4.34799,0.49803 14.3273,0.21034 17.89906,-0.51602 2.66313,-0.54157 2.91619,-0.55349 3.30729,-0.15575 0.38892,0.39554 0.36522,0.48134 -0.29032,1.05096 -1.49043,1.29509 -7.52105,3.18054 -12.68007,3.96438 -3.40738,0.5177 -10.42297,0.72231 -13.59361,0.39646 z m 76.20026,-1.57438 c -0.10702,-0.17316 -0.47829,-0.26061 -0.82503,-0.19433 -0.34675,0.0663 -0.63045,0.018 -0.63045,-0.10737 0,-0.12534 0.18478,-0.2279 0.41061,-0.2279 0.22583,0 0.85091,-0.22995 1.38906,-0.511 0.53815,-0.28106 2.49926,-1.23632 4.35803,-2.1228 2.74645,-1.30984 3.67012,-1.90234 4.93056,-3.16278 2.84673,-2.84674 3.38113,-5.92491 1.60662,-9.25424 -2.51881,-4.72576 -9.51175,-8.39027 -19.30946,-10.11874 -5.95786,-1.05105 -15.73153,-0.95972 -21.33635,0.19938 -1.30056,0.26896 -2.08048,0.31996 -2.29029,0.14978 -0.17499,-0.14194 -0.55628,-0.30478 -0.84732,-0.36187 -0.88213,-0.17302 2.55022,-1.90387 5.90611,-2.978315 4.56786,-1.46247 8.34539,-2.03981 14.33452,-2.19084 5.9164,-0.14919 9.65435,0.23044 14.62202,1.48505 12.1265,3.062585 19.04968,10.027305 17.00581,17.107835 -0.57703,1.99898 -1.21475,3.04257 -3.04154,4.97733 -2.54034,2.69045 -6.12865,4.78156 -10.94913,6.38065 -3.19634,1.06033 -5.05319,1.38414 -5.33377,0.93016 z m -54.40916,-24.77822 c -5.1749,-11.413005 -4.84368,-29.230485 0.74543,-40.098455 2.2664,-4.407 4.97562,-7.24606 8.48321,-8.88979 1.28328,-0.60137 1.8814,-0.71418 3.78668,-0.71418 2.08031,0 2.42407,0.0798 4.26498,0.98959 4.49868,2.22337 8.63351,8.59282 10.40778,16.03254 0.42167,1.76812 0.4257,1.97805 0.0452,2.35852 -0.34416,0.34416 -0.48981,0.35775 -0.82779,0.0773 -0.34529,-0.28656 -0.41327,-0.26204 -0.42985,0.15502 -0.0108,0.27248 -0.30591,-0.32378 -0.65572,-1.32503 -1.70209,-4.87181 -4.65206,-9.32848 -6.97954,-10.54437 -7.12485,-3.72207 -15.04856,6.34578 -17.09548,21.72144 -0.53983,4.05493 -0.50554,13.10234 0.0632,16.67088 0.24648,1.546645 0.45484,3.347865 0.46302,4.002705 0.0141,1.13281 -0.0221,1.19195 -0.74701,1.2178 -0.68768,0.0245 -0.8361,-0.13654 -1.52411,-1.65392 z"
       id="path826"
       inkscape:connector-curvature="0"
       inkscape:export-xdpi="2.1084027"
       inkscape:export-ydpi="2.1084027"
       inkscape:label="aura" />
    <path
       style="display:none;fill:#000000;stroke-width:0.264583"
       d="m -93.787306,257.85063 c -1.20163,-2.36443 -3.26705,-6.4153 -4.58983,-9.00194 -1.32278,-2.58663 -2.337664,-4.87858 -2.255294,-5.09323 0.0925,-0.24102 0.50362,-0.39026 1.075124,-0.39026 2.27697,0 3.98603,-1.7701 3.98603,-4.1284 0,-0.99495 -0.15703,-1.60098 -0.55349,-2.13605 -0.82123,-1.10834 -2.18644,-1.93763 -3.1898,-1.93763 -1.007094,0 -1.016614,-0.0425 -0.717824,-3.20539 l 0.165334,-1.75018 1.15571,-0.56148 1.1557,-0.56149 0.008,-2.45083 c 0.0218,-6.7165 0.51191,-28.54778 0.64579,-28.76439 0.0873,-0.14124 2.52582,-0.2509 5.66061,-0.25458 l 5.50727,-0.006 0.17461,7.17872 c 0.096,3.9483 0.18752,10.3443 0.20332,14.21334 0.0158,3.86904 0.10509,7.72454 0.19843,8.56778 0.16038,1.44877 0.22798,1.56567 1.22806,2.12385 l 1.05833,0.59069 0.15734,2.24177 c 0.0865,1.23298 0.10927,2.33108 0.0505,2.44022 -0.0587,0.10914 -0.48886,0.19844 -0.95581,0.19844 -1.85018,-1e-5 -3.61767,2.0252 -3.61767,4.14515 0,2.18097 1.53436,3.82463 3.78126,4.05061 2.03344,0.20452 2.51879,-1.06279 -5.55015,14.49225 -1.22666,2.36472 -2.31274,4.29925 -2.41351,4.29897 -0.10077,-2.7e-4 -1.16638,-1.93505 -2.36801,-4.29948 z m -26.061914,-25.51718 c -0.6462,-1.61304 -1.45229,-5.84246 -1.78035,-9.34116 -0.50248,-5.35899 -0.58331,-4.76236 0.64527,-4.76349 1.20058,-0.001 2.59896,-0.73303 3.0653,-1.6044 0.39489,-0.73785 0.39489,-2.1368 0,-2.87465 -0.41596,-0.77722 -1.82622,-1.60318 -2.73938,-1.60439 -0.58171,-8e-4 -0.71753,-0.10269 -0.61841,-0.46401 0.0699,-0.25466 0.26945,-1.09267 0.44353,-1.86223 0.29233,-1.29233 0.41211,-1.44766 1.56809,-2.03344 l 1.25158,-0.63422 2.331,-6.43324 c 1.28205,-3.53827 2.37456,-6.48466 2.42781,-6.54752 0.0532,-0.0629 1.25585,0.21929 2.67245,0.627 5.3221,1.53179 5.88293,1.74092 5.88293,2.19374 0,0.23992 -0.9525,4.87807 -2.11667,10.307 -1.16417,5.42893 -2.11667,9.92383 -2.11667,9.98867 0,0.0648 -0.74414,0.51183 -1.65364,0.99331 -0.90951,0.48147 -2.44298,1.66064 -3.40772,2.62036 -2.18533,2.17396 -3.99768,5.63933 -4.62238,8.83838 -0.22733,1.16417 -0.49766,2.47386 -0.60072,2.91042 l -0.1874,0.79375 z m 56.357684,0.82226 c -0.10859,-0.1086 -0.19927,-0.56456 -0.2015,-1.01325 -0.007,-1.39086 -1.01593,-4.91473 -1.96961,-6.87873 -1.50617,-3.10181 -4.13988,-5.82809 -7.0784,-7.32721 -0.56592,-0.28872 -1.05492,-0.76179 -1.136,-1.09901 -0.46644,-1.93983 -4.33498,-20.15406 -4.28832,-20.19067 0.13633,-0.10696 7.01986,-2.18215 7.79432,-2.34977 1.00629,-0.2178 0.61498,-1.00052 3.43303,6.86709 1.09458,3.05594 2.10087,5.69482 2.23619,5.86417 0.13532,0.16936 0.75774,0.54845 1.38316,0.84244 1.06761,0.50183 1.15574,0.62722 1.44174,2.05131 0.42615,2.12196 0.42185,2.13591 -0.7145,2.31762 -1.92778,0.30826 -3.05345,2.2266 -2.32137,3.95602 0.54203,1.28046 1.32614,1.83157 2.80864,1.97402 1.32414,0.12723 1.32559,0.12842 1.32559,1.08752 0,4.28786 -2.01267,14.59874 -2.71297,13.89845 z m -33.53495,-41.08163 v -3.13697 l -2.11303,-0.17622 c -1.162174,-0.0969 -2.454684,-0.24454 -2.872264,-0.32806 -0.69301,-0.1386 -0.77422,-0.0746 -0.93133,0.73349 -0.66253,3.40792 -1.04692,4.7218 -1.38139,4.7218 -0.35451,0 -7.46991,-2.07616 -7.82965,-2.28457 -0.0983,-0.0569 0.18401,-1.08425 0.62733,-2.28292 0.44332,-1.19866 0.85832,-2.36201 0.92221,-2.58521 0.0868,-0.30335 -0.37125,-0.5628 -1.81417,-1.02753 -4.22595,-1.36106 -13.08618,-5.90638 -14.2523,-7.31147 -0.29815,-0.35924 -0.12053,-0.88381 1.2112,-3.57714 0.85832,-1.73589 1.58146,-3.15616 1.60698,-3.15616 0.0255,0 1.09298,0.65706 2.37213,1.46013 4.61006,2.89428 11.86421,6.30909 16.58223,7.80589 2.32585,0.73787 7.078304,1.86891 7.078304,1.68457 0,-0.0448 -0.60142,-0.64403 -1.33649,-1.33161 -5.101264,-4.77162 -4.294094,-13.52449 1.60108,-17.36209 0.77273,-0.50302 0.95846,-0.70865 0.52916,-0.58586 -1.10825,0.317 -4.167864,1.91532 -5.901394,3.08285 -1.67566,1.12856 -6.49602,5.77987 -8.14163,7.85612 l -0.91529,1.15479 -3.83178,-2.18347 c -2.10748,-1.20091 -4.51585,-2.59206 -5.35194,-3.09145 l -1.52017,-0.90799 1.96212,-3.75188 c 1.07917,-2.06353 2.03951,-3.73285 2.1341,-3.7096 0.0946,0.0233 1.40592,1.00553 2.91405,2.18282 1.50814,1.17729 2.85132,2.14053 2.98484,2.14053 0.13352,0 1.06409,-0.72824 2.06795,-1.6183 3.7311,-3.30818 8.53214,-6.01347 12.711684,-7.16278 1.74907,-0.48096 2.79024,-0.57183 6.57601,-0.57393 4.13346,-0.002 4.68623,0.0551 6.82203,0.70896 4.95523,1.51688 9.10327,3.94553 13.02948,7.62866 l 1.33068,1.24829 2.37349,-1.8593 c 1.30542,-1.02261 2.69733,-2.09215 3.09314,-2.37676 l 0.71964,-0.51747 1.86004,3.713 c 1.02302,2.04214 1.85833,3.80387 1.85623,3.91495 -0.002,0.11108 -0.56764,0.51581 -1.25677,0.89941 -0.68913,0.38359 -3.02426,1.72304 -5.18919,2.97656 -2.16493,1.25352 -4.01039,2.27228 -4.10104,2.26391 -0.0906,-0.008 -0.76013,-0.79125 -1.48773,-1.73974 -1.83435,-2.39122 -5.20132,-5.57306 -7.63537,-7.21554 -2.18139,-1.47199 -5.57971,-3.2071 -6.24779,-3.18999 -0.22239,0.006 -0.0417,0.16831 0.40145,0.36136 1.28556,0.55998 3.44143,2.84841 4.3165,4.58191 1.12101,2.22072 1.53723,4.64978 1.15183,6.72215 -0.43967,2.3642 -1.62914,4.68842 -3.20681,6.26609 -1.65146,1.65146 -1.54333,1.67631 2.65915,0.61106 5.60638,-1.42111 12.77356,-4.54822 19.08846,-8.32849 l 2.85451,-1.70878 1.57726,3.14644 c 0.8675,1.73054 1.57727,3.19919 1.57727,3.26366 0,0.0645 -0.92105,0.73325 -2.04677,1.48618 -2.61069,1.74614 -8.46708,4.64676 -11.71199,5.80086 -1.38222,0.4916 -2.55842,0.92927 -2.61378,0.97261 -0.0554,0.0433 0.29675,1.20933 0.78247,2.59112 0.48573,1.38179 0.82868,2.55638 0.76213,2.6102 -0.0666,0.0538 -1.90696,0.63589 -4.08977,1.29349 -4.56975,1.37668 -4.07118,1.59527 -4.78399,-2.0974 -0.25984,-1.34606 -0.59943,-2.44082 -0.75464,-2.43278 -0.15521,0.008 -1.46422,0.15796 -2.90892,0.33316 l -2.6267,0.31853 0.0667,3.10643 0.0667,3.10643 h -5.70826 -5.70826 z m 7.54063,-14.56104 c 1.90825,-0.88071 2.77813,-2.26761 2.77813,-4.42933 0,-1.33754 -0.27785,-2.00523 -1.28911,-3.09786 -1.48527,-1.60479 -3.45402,-1.93857 -5.52398,-0.93651 -3.62731,1.75595 -3.44796,6.75545 0.30346,8.45911 1.37066,0.62247 2.39003,0.62372 3.7315,0.005 z M -112.6369,160.21333 v -2.75488 l 1.25677,-1.05177 c 3.70988,-3.10473 8.29352,-5.51633 12.868464,-6.7705 1.89185,-0.51863 2.75902,-0.5864 7.30602,-0.57098 4.8402,0.0164 5.3066,0.0623 7.53917,0.74196 4.22572,1.28641 8.15937,3.36639 11.97385,6.33138 l 1.65365,1.28538 v 2.78611 2.78612 l -1.38907,-1.17851 c -6.42787,-5.45351 -14.13427,-8.22862 -21.62969,-7.78896 -6.14123,0.36024 -12.899514,3.21824 -18.057814,7.63645 l -1.52135,1.30308 z"
       id="path981"
       inkscape:connector-curvature="0"
       inkscape:export-xdpi="95.932327"
       inkscape:export-ydpi="95.932327"
       inkscape:label="sensi" />
    <path
       style="display:none;fill:#000000;stroke-width:0.264583"
       d="m 90.565141,240.62158 -9.97652,-8.31728 0.64055,-1.44838 c 4.04255,-9.14093 4.12228,-19.48071 0.23604,-30.61079 -0.89296,-2.55742 -0.94749,-2.89086 -0.78884,-4.82325 0.61621,-7.50529 4.36,-15.45286 9.94181,-21.10515 3.33257,-3.37465 8.30955,-6.39831 11.524399,-7.00142 0.50194,-0.0942 0.91106,-0.30679 0.90917,-0.47249 -0.002,-0.16571 -0.76307,-2.86113 -1.69151,-5.98983 -0.92844,-3.1287 -1.671029,-5.70457 -1.650199,-5.72416 0.0208,-0.0196 1.795959,-1.00669 3.944739,-2.19356 l 3.90688,-2.15793 3.93029,2.20208 3.93028,2.20208 -1.68216,5.68002 c -0.92518,3.12401 -1.68371,5.80151 -1.6856,5.95 -0.002,0.14849 0.90654,0.55246 2.01874,0.8977 1.1122,0.34525 2.23337,0.83891 2.49149,1.09703 0.25812,0.25812 0.52857,0.41005 0.60099,0.33763 0.0724,-0.0724 0.38769,0.005 0.70059,0.17279 0.48724,0.26076 0.51898,0.3683 0.2211,0.74904 -0.31333,0.4005 -0.30115,0.40794 0.12283,0.0751 0.41726,-0.32755 0.64178,-0.25251 1.97916,0.66146 7.50827,5.13115 13.26942,15.31127 13.98961,24.72004 0.14493,1.89347 0.0813,2.25394 -0.91458,5.18027 -1.74581,5.13002 -2.46663,8.8688 -2.62637,13.62256 -0.20131,5.99097 0.59942,10.6311 2.71754,15.74795 0.51946,1.25487 0.9093,2.30592 0.86631,2.33568 -0.043,0.0298 -1.88446,1.56024 -4.09217,3.40106 l -4.01403,3.34695 -0.56873,-1.76039 c -0.31279,-0.96821 -0.91616,-2.52666 -1.34082,-3.46321 -0.42465,-0.93656 -0.6955,-1.82676 -0.60188,-1.97823 0.0936,-0.15147 0.0566,-0.20518 -0.0823,-0.11934 -0.13888,0.0858 -0.41453,-0.10414 -0.61256,-0.42214 -0.33054,-0.53083 -0.32335,-0.54788 0.0878,-0.20808 0.40769,0.33696 0.42509,0.31038 0.19429,-0.29668 -0.43489,-1.14385 -2.91966,-6.04473 -3.36928,-6.64546 -0.3897,-0.52067 -0.41051,-0.52447 -0.23306,-0.0426 0.10718,0.29104 0.26021,0.76729 0.34008,1.05834 0.0799,0.29104 0.21866,0.58869 0.30843,0.66145 0.60298,0.48871 3.75831,10.94364 3.91395,12.96851 l 0.13249,1.72372 -3.70331,3.10493 c -2.03682,1.70771 -3.80811,3.10493 -3.9362,3.10493 -0.1281,0 -0.3733,0.22482 -0.5449,0.4996 -0.17161,0.27478 -0.67501,0.75808 -1.11868,1.074 l -0.80668,0.5744 0.002,-16.53576 0.002,-16.53577 2.56449,-1.60438 2.56449,-1.6044 0.87796,1.52189 c 2.14817,3.72372 4.85512,9.49804 5.55077,11.84063 0.21607,0.7276 0.48833,1.44198 0.60502,1.5875 0.1167,0.14552 0.40174,0.85989 0.63345,1.5875 l 0.42127,1.32291 -0.1605,-1.19062 c -0.0883,-0.65485 -0.51468,-2.55985 -0.94759,-4.23334 -0.43291,-1.67348 -0.95797,-3.81661 -1.16679,-4.7625 -0.46682,-2.11444 -1.15069,-4.28207 -1.45515,-4.61236 -0.12509,-0.1357 -0.11046,0.16117 0.0325,0.65971 0.47355,1.65117 0.25704,1.46392 -0.63046,-0.54526 -0.48209,-1.09141 -1.13337,-2.4011 -1.44727,-2.91042 -0.31391,-0.50932 -0.57119,-1.0096 -0.57173,-1.11174 -5.3e-4,-0.10213 1.17129,-0.90609 2.60408,-1.78657 l 2.60506,-1.60087 0.66411,-4.03426 c 0.44381,-2.696 0.57611,-4.12204 0.39883,-4.29885 -0.17699,-0.17652 -0.20909,-0.16414 -0.0965,0.0372 0.0929,0.16599 -0.14278,0.50597 -0.52363,0.75551 -0.57362,0.37586 -0.73645,0.39217 -0.94873,0.0951 -0.19865,-0.27801 -0.22467,-0.25947 -0.11572,0.0825 0.15245,0.47848 -0.4833,0.86509 -0.94913,0.57719 -0.15487,-0.0957 -0.20739,-0.054 -0.11671,0.0927 0.0907,0.14673 -0.14802,0.40934 -0.53045,0.58359 -0.55281,0.25187 -0.74317,0.24625 -0.92878,-0.0275 -0.17033,-0.25118 -0.21258,-0.21369 -0.15627,0.13866 0.059,0.36915 -0.60134,0.85947 -2.80262,2.08107 l -2.87979,1.59815 -0.69156,-0.89045 c -3.62816,-4.67146 -8.82965,-9.43686 -14.45104,-13.2394 l -2.381249,-1.61078 1.851499,1.6882 c 3.29951,3.00849 6.52213,6.16313 7.30901,7.15482 l 0.76864,0.96871 -1.52499,-0.78127 c -0.83874,-0.4297 -1.29965,-0.62749 -1.02423,-0.43954 2.54628,1.73764 4.69454,3.50035 5.51851,4.52811 0.5457,0.68067 1.41409,1.76218 1.92974,2.40335 l 0.93755,1.16578 -1.86359,1.00657 -1.8636,1.00657 v 6.53152 6.53152 l -2.02497,1.2621 c -1.11373,0.69417 -2.15552,1.26066 -2.3151,1.25889 -0.15957,-0.002 -1.20145,-0.56762 -2.31527,-1.25745 l -2.02514,-1.25422 -0.0135,-6.51545 -0.0135,-6.51545 -1.79786,-1.00374 c -0.98883,-0.55206 -1.769529,-1.11794 -1.734889,-1.25752 0.0346,-0.13957 -0.0844,-0.19835 -0.26459,-0.13062 -0.18015,0.0677 -2.88739,-1.29282 -6.01609,-3.02345 -3.1287,-1.73064 -5.72031,-3.11787 -5.75914,-3.08274 -0.0388,0.0351 0.18788,1.80057 0.50378,3.92322 l 0.57436,3.85935 5.93385,3.62295 c 3.26361,1.99262 5.984819,3.75633 6.047119,3.91936 0.0623,0.16303 0.0824,7.64394 0.0447,16.62425 l -0.0686,16.32783 z"
       id="path979"
       inkscape:connector-curvature="0"
       inkscape:export-xdpi="95.932327"
       inkscape:export-ydpi="95.932327"
       inkscape:label="armor" />
    <path
       style="display:none;fill:#000000;stroke-width:0.264583"
       d="m -93.522122,60.836831 c 0.696651,-2.382785 1.829618,-4.204797 3.817471,-6.13912 3.711661,-3.61171 8.459522,-4.923828 13.345544,-3.68816 1.598408,0.404229 4.115262,1.583479 5.18424,2.429022 0.508636,0.402321 0.486466,0.448539 -0.83195,1.734884 l -1.35451,1.321547 -1.695502,-0.894312 c -1.595659,-0.841652 -1.859079,-0.896965 -4.473268,-0.93921 -2.554277,-0.04128 -2.917229,0.01847 -4.511258,0.742606 -2.124118,0.964935 -3.99661,2.729301 -5.019159,4.72931 -0.709113,1.386963 -0.774035,1.747372 -0.819302,4.548626 -0.04492,2.779627 0.01127,3.170576 0.650826,4.527817 0.956401,2.029658 2.821829,3.912064 4.88562,4.930063 1.373086,0.677294 2.129377,0.867159 3.871631,0.971983 3.33853,0.200859 5.434482,-0.59927 8.305947,-3.17081 l 1.407814,-1.260767 -1.433921,-1.454759 -1.433922,-1.454759 -1.580971,1.416951 c -2.84152,2.54672 -6.206125,2.716068 -8.777814,0.441789 -2.929513,-2.590732 -2.83038,-7.227546 0.208377,-9.744655 1.817006,-1.505108 4.638406,-1.853637 6.671557,-0.824131 0.644739,0.32646 3.178988,2.72794 6.402487,6.06706 l 5.335358,5.526728 -3.230511,3.078995 c -3.510784,3.34613 -5.217177,4.395806 -8.210559,5.050695 -4.914133,1.07512 -9.68448,-0.421102 -13.232696,-4.150449 -1.891888,-1.988468 -3.030879,-4.004724 -3.638437,-6.440799 -0.416483,-1.669947 -0.330749,-5.688027 0.156978,-7.356144 z m 11.962167,5.715216 c 0.651786,0.716655 1.568208,1.014811 2.30182,0.748899 0.287632,-0.104266 1.077221,-0.685784 1.754639,-1.292267 l 1.231658,-1.102694 -1.098696,-1.102736 c -1.84195,-1.848733 -3.017308,-1.983971 -4.310948,-0.496049 -0.829545,0.954121 -0.780918,2.252586 0.121527,3.244847 z m 13.841103,-10.009328 c 4.577245,-4.327198 7.017052,-5.477016 11.532553,-5.435031 8.10748,0.07541 14.18709,6.329045 14.055727,14.458104 -0.06559,4.05862 -1.431715,7.265155 -4.263321,10.006701 -2.790366,2.701616 -6.133051,4.002506 -10.119071,3.938093 -3.199052,-0.0517 -6.03212,-0.995684 -8.262177,-2.752996 l -0.624776,-0.492338 1.383724,-1.291251 1.383714,-1.291261 1.506611,0.775194 c 2.055282,1.057507 4.297389,1.463237 6.260932,1.13297 5.797432,-0.975115 9.594362,-6.050368 8.780052,-11.736058 -0.34308,-2.395416 -1.117659,-3.935432 -2.923525,-5.812496 -2.107963,-2.191095 -3.816939,-2.905761 -7.10959,-2.973131 -3.233383,-0.06615 -4.886005,0.564277 -7.284922,2.778976 l -1.783609,1.646656 1.347519,1.403436 1.34752,1.403445 1.492733,-1.320643 c 2.574326,-2.277552 5.443779,-2.683432 7.997061,-1.131154 5.46189,3.320594 3.127008,11.834079 -3.225763,11.761804 -2.562145,-0.0291 -3.126765,-0.435907 -8.984126,-6.472326 -2.970485,-3.061286 -5.399792,-5.633423 -5.39846,-5.715853 0.0013,-0.08239 1.302378,-1.378806 2.891194,-2.880841 z m 10.84364,11.20437 c 2.420725,0.649308 4.117122,-2.750026 2.164618,-4.337601 -1.164345,-0.946717 -2.286215,-0.757759 -3.836642,0.646203 l -1.355002,1.226997 1.167552,1.139403 c 0.642149,0.626668 1.478914,1.222916 1.859474,1.324998 z"
       id="path975"
       inkscape:connector-curvature="0"
       inkscape:export-xdpi="95.932327"
       inkscape:export-ydpi="95.932327"
       inkscape:label="mobi" />
    <path
       style="display:none;fill:#000000;stroke-width:0.264583"
       d="m 127.67093,-6.2616943 c -1.57636,-1.38757 -2.01117,-2.24709 -2.01922,-3.9914697 -0.0103,-2.23443 -0.44566,-3.57306 -1.99253,-6.12669 -1.68607,-2.78341 -2.08099,-4.01877 -1.88776,-5.90512 0.30847,-3.01134 2.18635,-5.57355 5.01546,-6.84317 1.42084,-0.63764 1.82735,-0.70101 3.86754,-0.6029 1.88832,0.0908 2.52147,0.24131 3.68709,0.87639 2.70546,1.47408 4.38478,4.25962 4.38732,7.27742 0.002,1.81143 0.0286,1.74538 -2.74629,6.70411 -0.73893,1.32047 -0.8922,1.91197 -1.05573,4.07413 l -0.19131,2.5293797 -1.6019,1.54827 c -1.51518,1.46446 -1.67292,1.54827 -2.91391,1.54827 -1.15998,0 -1.45531,-0.12614 -2.54876,-1.08862 z m 3.58035,-0.75466 0.62462,-0.52036 h -1.5875 -1.58751 l 0.62462,0.52036 c 0.34355,0.2862 0.77684,0.52037 0.96289,0.52037 0.18604,0 0.61933,-0.23417 0.96288,-0.52037 z m 2.07983,-2.39005 c 0,-0.14873 -0.73886,-0.26458 -1.6874,-0.26458 -1.17713,0 -1.78701,-0.12002 -2.01678,-0.3968797 -0.61758,-0.74414 0.1387,-1.19062 2.01678,-1.19062 0.94854,0 1.6874,-0.11586 1.6874,-0.26459 0,-0.1609 -1.18137,-0.26458 -3.01492,-0.26458 h -3.01493 l -0.0994,1.04203 c -0.0547,0.57311 -0.0572,1.1684197 -0.006,1.3229097 0.12324,0.36973 6.13496,0.38571 6.13496,0.0163 z m -4.92405,-4.3115197 c 0.44294,-0.32389 0.43116,-0.41351 -0.21402,-1.62691 -1.19874,-2.25453 -0.84968,-4.5532 0.82118,-5.40769 1.97075,-1.00784 4.30718,0.91419 3.88232,3.19373 -0.0898,0.48199 -0.46554,1.4439 -0.8349,2.13758 -0.65674,1.23338 -0.66036,1.2697 -0.16407,1.64523 0.98412,0.74465 1.62867,0.50185 2.2207,-0.83651 0.30103,-0.68054 1.02041,-1.98642 1.59863,-2.90196 1.44213,-2.28347 1.76906,-3.60745 1.3515,-5.47332 -0.96867,-4.32847 -5.99799,-6.64576 -9.98669,-4.60142 -2.29213,1.17479 -3.78816,3.46749 -3.79897,5.82202 -0.007,1.50325 0.38361,2.50954 1.95757,5.04436 0.64631,1.04085 1.25576,2.21987 1.35434,2.62006 0.1997,0.81068 0.99816,0.98022 1.81241,0.38483 z m 6.51155,-9.16307 c 0,-0.54202 -1.84211,-2.31555 -2.90111,-2.79309 -1.12951,-0.50933 -1.44304,-1.33196 -0.62701,-1.6451 1.24142,-0.47638 4.98969,2.65845 4.79607,4.01114 -0.0799,0.55785 -1.26795,0.95801 -1.26795,0.42705 z m -3.9311,6.17504 c 0.66079,-1.4938 0.4937,-2.413 -0.4832,-2.65818 -1.47762,-0.37086 -2.05725,1.57216 -0.9776,3.277 0.55127,0.87049 0.85983,0.73978 1.4608,-0.61882 z"
       id="path973"
       inkscape:connector-curvature="0"
       inkscape:export-xdpi="95"
       inkscape:export-ydpi="95"
       inkscape:label="light" />
    <path
       style="display:none;fill:#000000;stroke-width:0.264583"
       d="m 23.330608,306.80271 c -5.21169,-0.45308 -10.08795,-2.25843 -14.4197899,-5.33867 l -1.45521,-1.03476 1.32292,0.22069 c 0.7276,0.12138 2.8707299,0.20914 4.7624999,0.19502 2.98241,-0.0222 3.7385,-0.12204 5.68854,-0.7507 3.51761,-1.13403 6.26876,-2.75967 8.94936,-5.28815 1.53275,-1.44576 3.08405,-3.57705 2.79385,-3.83838 -0.12861,-0.11582 -3.86524,-2.94264 -8.30363,-6.28184 -8.94096,-6.72669 -22.9315899,-17.26349 -23.4933299,-17.6936 -0.29462,-0.22558 -0.16768,-0.64946 0.69195,-2.31065 3.68769,-7.12629 9.4407,-12.06762 16.9805499,-14.5848 6.87132,-2.294 14.77012,-1.82965 21.27249,1.25056 2.44588,1.15862 5.50503,3.06421 5.87178,3.65762 0.10685,0.17289 0.0748,0.23579 -0.0735,0.14413 -0.14471,-0.0894 -1.35373,-0.29522 -2.68671,-0.45729 -4.52222,-0.54985 -9.5417,0.52803 -13.55106,2.90994 -2.08925,1.24121 -5.19159,4.03605 -6.35156,5.72201 l -0.75705,1.10034 15.77766,11.87324 c 8.67771,6.53028 15.96556,12.01234 16.19522,12.18234 0.37306,0.27615 0.3374,0.47354 -0.33459,1.85208 -1.9494,3.99906 -5.6159,8.45182 -8.98355,10.91002 -5.69949,4.1603 -12.8901,6.16997 -19.8968,5.56085 z m -14.0229099,-8.0252 c -1.01865,-0.19915 -2.62599,-0.65181 -3.57188,-1.00592 -1.54019,-0.5766 -1.86555,-0.83523 -3.11556,-2.47655 -1.99916,-2.625 -4.15715,-7.11101 -5.01813,-10.43167 -0.64672,-2.49426 -0.7208,-3.24222 -0.72508,-7.32019 -0.003,-2.49814 0.0712,-4.61805 0.16413,-4.71092 0.0929,-0.0929 4.08149,2.73613 8.86354,6.28665 l 8.6946399,6.4555 0.18885,2.05886 c 0.31809,3.46773 1.45841,6.05384 3.77066,8.55134 l 1.46269,1.57988 -0.72672,0.28257 c -2.53175,0.9844 -7.01209,1.31209 -9.9871399,0.73045 z M 52.963948,281.70524 c -0.72761,-0.55591 -4.23995,-3.16876 -7.80521,-5.80632 -3.56526,-2.63757 -6.86925,-5.09793 -7.34219,-5.46747 -0.78926,-0.6167 -0.86043,-0.79593 -0.86636,-2.18196 -0.0135,-3.14486 -1.25324,-6.16147 -3.59638,-8.75073 -0.78333,-0.8656 -1.42424,-1.64107 -1.42424,-1.72326 0,-0.28039 2.77386,-0.94776 4.89479,-1.17763 4.12407,-0.44699 9.76688,0.7624 11.34039,2.43052 2.61314,2.77025 5.33903,8.37857 6.25356,12.86624 0.70817,3.47503 0.73141,10.9015 0.0339,10.83672 -0.0909,-0.008 -0.76068,-0.4702 -1.48828,-1.02611 z"
       id="path983"
       inkscape:connector-curvature="0"
       inkscape:export-xdpi="95.932327"
       inkscape:export-ydpi="95.932327"
       inkscape:label="charisme" />
    <path
       style="display:none;fill:#000000;stroke-width:0.264583"
       d="m 10.849635,-27.313398 -0.9466602,-1.105958 v -7.237725 c 0,-6.813238 0.0272,-7.222863 0.4630202,-6.984275 0.77573,0.424624 8.7974,8.659487 8.7974,9.031211 0,0.355465 -6.83205,7.402706 -7.17666,7.402706 -0.10474,0 -0.61644,-0.497681 -1.1371,-1.105959 z m -63.35664,-2.616464 c -1.9092,-1.901812 -3.47127,-3.565438 -3.47127,-3.696949 0,-0.417976 37.15634,-37.577229 37.57083,-37.573779 0.21828,0.0019 5.36774,5.003956 11.4432298,11.115863 l 11.04636,11.112561 -5.3e-4,7.479758 -5.3e-4,7.47976 -10.97094,-10.980208 c -6.0340098,-6.039115 -11.1841398,-11.01448 -11.4447298,-11.056367 -0.32223,-0.05179 -4.73972,4.151083 -13.80935,13.138463 -9.19428,9.110895 -13.45992,13.166897 -13.73601,13.060953 -0.27952,-0.107265 -0.35384,-0.03223 -0.24612,0.248483 0.0996,0.259501 -0.33882,0.885828 -1.23591,1.765724 -0.76463,0.749969 -1.45398,1.363577 -1.5319,1.363577 -0.0779,0 -1.70375,-1.556027 -3.61295,-3.457839 z m 5.37601,1.367475 c 0.08,-0.12949 -0.0386,-0.306081 -0.26359,-0.392422 -0.23426,-0.08989 -0.34001,-0.04521 -0.24744,0.104566 0.0889,0.143854 0.0483,0.261554 -0.0903,0.261554 -0.13854,0 -0.32148,0.181348 -0.40653,0.402997 -0.125,0.325734 -0.0572,0.350824 0.35383,0.130868 0.27966,-0.149669 0.57395,-0.378073 0.65398,-0.507563 z m -5.4077,-3.995052 c 0,-0.145521 -0.12609,-0.264584 -0.2802,-0.264584 -0.15411,0 -0.20661,0.119063 -0.11667,0.264584 0.0899,0.14552 0.21602,0.264583 0.28019,0.264583 0.0642,0 0.11668,-0.119063 0.11668,-0.264583 z m 1.98438,-0.529167 c 0.0899,-0.145521 0.0374,-0.264583 -0.11668,-0.264583 -0.15411,0 -0.2802,0.119062 -0.2802,0.264583 0,0.145521 0.0525,0.264583 0.11668,0.264583 0.0642,0 0.19026,-0.119062 0.2802,-0.264583 z m 57.3096998,1.710584 -0.82116,-0.935246 v -7.279985 c 0,-7.922437 -0.0356,-7.771796 1.42236,-6.024866 l 0.69431,0.831942 v 7.171704 c 0,4.052218 -0.10317,7.1717 -0.23718,7.1717 -0.13044,0 -0.60669,-0.420862 -1.05833,-0.935249 z"
       id="path1023"
       inkscape:connector-curvature="0"
       inkscape:export-xdpi="95.932327"
       inkscape:export-ydpi="95.932327"
       inkscape:label="init" />
    <path
       style="display:none;fill:#000000;stroke-width:0.264583"
       d="m 69.802644,107.34604 c -0.483589,-0.48359 -0.61859,-0.82762 -0.49317,-1.25677 0.09498,-0.325 4.362314,-4.78786 9.482963,-9.917465 7.14593,-7.15844 9.460095,-9.32656 9.954768,-9.32656 0.493046,0 2.670003,2.02208 9.263825,8.60476 l 8.61932,8.604755 0.77326,-0.8071 0.77325,-0.8071 -6.95554,-6.959255 -6.955544,-6.95925 0.954892,-0.83841 c 0.993339,-0.87216 1.355125,-0.98419 1.953557,-0.60491 0.195593,0.12396 4.162665,4.00268 8.815705,8.61938 l 8.46009,8.393995 5.8274,-5.800075 5.82741,-5.80007 -0.84686,-0.84687 -0.84687,-0.84686 -4.87402,4.83652 c -2.68071,2.66009 -4.96419,4.867695 -5.07439,4.905795 -0.1102,0.0381 -0.67065,-0.41232 -1.24543,-1.000945 l -1.04505,-1.07024 5.82911,-5.81206 c 4.3775,-4.3647 5.98849,-5.81206 6.46912,-5.81206 0.48716,0 2.69862,2.05512 9.25934,8.60476 l 8.61933,8.604755 0.77325,-0.8071 0.77325,-0.8071 -6.95554,-6.959255 -6.95554,-6.95925 0.95489,-0.83841 c 1.02626,-0.90107 1.25703,-0.97157 1.94606,-0.5946 0.24509,0.1341 4.23621,4.01895 8.86914,8.633 l 8.42352,8.389195 8.57709,-8.566855 c 4.7174,-4.71177 8.81217,-8.60457 9.09949,-8.65066 0.77935,-0.12503 1.93297,1.13435 1.71677,1.87415 -0.095,0.325 -4.36232,4.78786 -9.48297,9.91747 -6.86269,6.874695 -9.47077,9.326555 -9.9208,9.326555 -0.38788,0 -1.22938,-0.59424 -2.30743,-1.62944 l -1.69689,-1.62943 -1.69689,1.62943 c -0.93329,0.8962 -1.8982,1.62944 -2.14423,1.62944 -0.43608,0 -1.45298,-0.95082 -9.8943,-9.251335 l -4.07813,-4.0101 -6.64942,6.630715 c -4.81448,4.80094 -6.81674,6.63072 -7.25571,6.63072 -0.38268,0 -1.23215,-0.60098 -2.30318,-1.62944 l -1.69689,-1.62943 -1.6969,1.62943 c -0.93328,0.8962 -1.91555,1.62748 -2.18281,1.62507 -0.27638,-0.002 -3.38315,-2.86416 -7.204482,-6.6361 l -6.71857,-6.631725 -6.654819,6.636095 c -4.666311,4.65319 -6.82914,6.6361 -7.238207,6.6361 -0.750276,0 -1.641718,-0.89144 -1.641718,-1.64171 0,-0.40916 1.992805,-2.58182 6.672424,-7.274635 l 6.672425,-6.69124 -0.917737,-0.77641 -0.917736,-0.77641 -8.366433,8.34509 c -4.601538,4.589795 -8.530601,8.449055 -8.73125,8.576145 -0.598527,0.3791 -1.013606,0.2759 -1.716193,-0.42669 z m 79.130316,-7.809565 -1.042,-1.06711 5.82911,-5.81206 c 6.09325,-6.07543 6.46855,-6.33892 7.52458,-5.2829 1.05319,1.05319 0.7878,1.43267 -5.21757,7.46073 -3.16071,3.17264 -5.81545,5.768435 -5.89943,5.768435 -0.084,0 -0.62159,-0.4802 -1.19469,-1.067095 z"
       id="path977"
       inkscape:connector-curvature="0"
       inkscape:export-xdpi="95.932327"
       inkscape:export-ydpi="95.932327"
       inkscape:label="furtiv" />
    <path
       style="display:none;fill:#000000;stroke-width:0.264583"
       d="m 202.46294,-62.557492 c 0,-0.09775 0.82936,-5.723453 1.84302,-12.501562 1.01367,-6.778109 2.68371,-17.947 3.71122,-24.819756 l 1.86819,-12.49592 -1.28765,-1.79158 c -0.70821,-0.98537 -8.29262,-11.85236 -16.85426,-24.14887 -8.56164,-12.29651 -16.5634,-23.76905 -17.78169,-25.49452 -3.16972,-4.48929 -3.64648,-5.48128 -3.64221,-7.5784 0.003,-1.51018 0.13556,-1.96165 1.08704,-3.70417 0.91992,-1.68472 20.7141,-32.49248 23.61504,-36.75455 1.38055,-2.02832 2.15586,-2.53945 3.82338,-2.52059 1.21885,0.0138 2.5584,0.5846 12.21687,5.20591 23.15357,11.07835 28.97763,13.90089 29.39078,14.24377 0.33709,0.27976 0.40722,0.73021 0.32906,2.11357 -0.14573,2.57906 -1.57343,5.33381 -4.04556,7.80593 -4.09889,4.0989 -9.86676,5.68314 -16.2692,4.46861 -2.49495,-0.47328 -6.0709,-1.68426 -8.31323,-2.81524 -0.8547,-0.43109 -1.64426,-0.68537 -1.75459,-0.56508 -0.36244,0.39518 -5.68726,10.79472 -5.68726,11.10739 0,0.16794 1.78594,1.20239 3.96875,2.29878 18.12278,9.10275 29.77166,25.06226 35.61525,48.79457 0.47523,1.93 0.93911,3.41828 1.03086,3.30729 0.0917,-0.111 1.4089,-6.89874 2.92702,-15.08386 1.51811,-8.18513 2.86458,-14.8824 2.99214,-14.88282 0.12757,-5.3e-4 4.3886,2.14237 9.46897,4.76174 5.08037,2.61938 9.33785,4.7625 9.46105,4.7625 0.12321,0 1.10093,-0.92915 2.1727,-2.06477 1.07178,-1.13563 6.05634,-6.31804 11.07681,-11.51646 l 9.12812,-9.45168 0.0827,3.38052 c 0.10621,4.34046 -0.32857,8.56366 -1.14902,11.16085 -0.61408,1.94391 -5.30519,11.66346 -15.83356,32.80574 l -4.66368,9.36524 v 21.392568 21.392576 h -34.26352 c -18.84495,0 -34.26354,-0.07998 -34.26354,-0.177726 z m 41.66618,-20.263355 c 1.24006,-7.386294 2.25465,-13.527868 2.25465,-13.647942 0,-0.120075 2.38639,-1.919811 5.30308,-3.999411 2.9167,-2.0796 5.26818,-3.81111 5.22552,-3.84779 -0.0427,-0.0367 -0.97053,0.0898 -2.06193,0.28114 -3.35664,0.58838 -7.93431,0.96064 -9.63044,0.78316 -4.40243,-0.46067 -8.87405,-1.69194 -13.09452,-3.60558 -0.93512,-0.42401 -1.73774,-0.73341 -1.7836,-0.68755 -0.0459,0.0459 2.15701,2.33886 4.89527,5.09557 l 4.97865,5.012192 0.57883,13.758334 c 0.31836,7.567083 0.58312,14.115521 0.58835,14.552083 0.0234,1.952945 0.61179,-0.981109 2.74614,-13.694206 z m 23.7822,-64.734353 c -3.18818,-2.13285 -8.56408,-8.35937 -8.56235,-9.91715 4e-4,-0.35976 4.41792,-5.42919 12.58738,-14.44492 15.31762,-16.90436 14.13878,-15.68592 14.97342,-15.47645 3.03376,0.76143 11.59692,11.77966 11.59692,14.92178 0,0.53926 -28.11484,25.95467 -28.71138,25.95467 -0.18287,0 -1.03067,-0.46707 -1.88399,-1.03793 z m -13.06088,-13.69207 c -4.6461,-2.73968 -13.22917,-11.04306 -13.22917,-12.79808 0,-0.2653 5.78486,-8.37821 12.85525,-18.0287 14.62676,-19.96431 13.21158,-18.49401 16.11663,-16.74427 2.8674,1.72707 5.50763,3.87106 8.76181,7.11498 4.29267,4.27914 6.71268,8.00395 6.00751,9.2466 -0.19932,0.35124 -11.53722,12.98733 -23.71147,26.42644 -2.73538,3.01957 -5.11663,5.48899 -5.29167,5.48761 -0.17505,-0.001 -0.85405,-0.31843 -1.50889,-0.70458 z m -12.07532,-21.12103 c 1.03806,-3.54403 1.33061,-5.50109 1.34473,-8.99584 0.0134,-3.33008 -0.044,-3.81436 -0.56875,-4.79536 -0.32104,-0.60016 -0.92036,-1.37406 -1.33183,-1.71979 -0.41146,-0.34573 -3.57628,-2.10123 -7.03292,-3.90112 -6.09411,-3.17323 -6.27379,-3.28964 -5.92161,-3.83646 0.19977,-0.31016 3.016,-5.02879 6.2583,-10.48582 7.41424,-12.47872 7.33254,-12.35053 7.97938,-12.51968 2.96557,-0.77551 16.76805,7.36113 20.26555,11.94666 1.49162,1.95564 1.46911,2.09591 -0.89251,5.56118 -5.91707,8.68227 -19.76972,28.7803 -19.99582,29.01081 -0.1706,0.17393 -0.20641,0.0833 -0.10452,-0.26458 z m -20.60073,-25.80953 c -1.4552,-0.71405 -5.97958,-2.86124 -10.05416,-4.77155 -4.07459,-1.9103 -7.51395,-3.57238 -7.64303,-3.69351 -0.26288,-0.24667 12.04742,-22.66767 12.75407,-23.22923 0.66401,-0.52768 2.94722,-0.24201 5.86981,0.73443 6.93819,2.31804 15.35422,7.79959 15.34059,9.99167 -0.005,0.84734 -12.74189,22.14018 -13.29058,22.21896 -0.18198,0.0261 -1.52149,-0.53672 -2.9767,-1.25077 z"
       id="path1021"
       inkscape:connector-curvature="0"
       inkscape:export-xdpi="95"
       inkscape:export-ydpi="95"
       inkscape:label="force" />
    <path
       style="display:none;fill:#000000;stroke-width:0.264583"
       d="m -298.74015,128.65886 c -8.21668,-7.85847 -12.9719,-15.87273 -15.20102,-25.61924 -0.62958,-2.75272 -0.73083,-3.810893 -0.79549,-8.313573 -0.0408,-2.83766 -0.0222,-4.80219 0.0413,-4.36563 0.90131,6.19674 1.72391,9.54643 3.41202,13.893993 2.75593,7.09765 7.68414,13.72244 13.71895,18.44186 0.71066,0.55576 0.7328,0.63532 0.43113,1.54939 -0.49688,1.50556 -0.21102,3.79849 0.70362,5.64384 0.43988,0.8875 0.76909,1.61363 0.73157,1.61363 -0.0375,0 -1.40647,-1.27992 -3.04213,-2.84427 z m -28.96457,-21.69757 c -1.96402,-0.70268 -3.4615,-2.0272 -4.41025,-3.90087 -0.48761,-0.96297 -0.99544,-3.264263 -0.99544,-4.510943 v -0.91301 h -1.57758 c -6.53234,0 -10.42162,-6.70819 -6.94301,-11.975247 2.58278,-3.910647 14.55643,-7.415638 21.22059,-6.2118 1.23692,0.223443 2.60614,0.559099 3.04271,0.745903 0.76413,0.326969 0.71879,0.346406 -1.21526,0.520962 -2.6724,0.241194 -4.46938,0.870863 -5.45372,1.911006 -1.04102,1.100026 -1.40082,1.81973 -1.40082,2.802043 0,2.080408 2.40979,2.214938 4.6376,0.2589 0.92053,-0.808241 0.97779,-0.825743 0.79261,-0.242295 -0.29631,0.933585 -0.24168,3.036761 0.0952,3.666286 0.34324,0.641352 1.14092,0.954522 1.85444,0.728062 0.53004,-0.16823 0.93651,-0.998392 1.23514,-2.522577 0.24525,-1.251783 1.24747,-3.189202 1.98458,-3.836458 0.45164,-0.396584 0.56487,-0.425003 0.45192,-0.113424 -1.397,3.853727 -1.52643,4.675224 -1.53111,9.718229 -0.007,7.092443 -0.65461,9.544793 -3.14541,11.903313 -2.22983,2.11141 -5.90715,2.95047 -8.64222,1.97192 z m 22.47205,-0.35256 c -3.10378,-0.89954 -5.94708,-4.5619 -7.23895,-9.324263 -1.06157,-3.91338 -1.31569,-10.191017 -0.54268,-13.40634 0.18649,-0.775692 0.22704,-0.602147 0.24972,1.06889 0.0356,2.624812 0.62995,4.82759 1.76645,6.54716 1.79333,2.71338 4.01883,3.22195 5.11283,1.16839 0.37221,-0.69868 0.017,-2.15833 -0.66247,-2.72224 -0.21878,-0.18157 -0.51481,-0.548792 -0.65784,-0.816052 -0.16126,-0.30132 0.4967,0.008 1.73198,0.814502 2.20057,1.43655 3.52404,1.79131 5.09973,1.36702 1.38173,-0.37206 2.04034,-1.10689 1.81101,-2.020612 -0.46671,-1.859538 -1.40666,-2.453427 -5.18758,-3.277662 -3.07571,-0.670502 -4.82559,-1.500042 -6.2089,-2.943376 -0.58208,-0.607338 -0.87974,-1.037741 -0.66146,-0.95645 6.69249,2.492375 11.30118,2.791359 16.95239,1.099767 1.22645,-0.367115 3.08742,-0.740341 4.13549,-0.829392 1.71004,-0.145296 2.05284,-0.08987 3.34049,0.540118 2.50717,1.226648 3.47914,3.330379 3.29931,7.141037 -0.13177,2.79227 -0.79618,4.39615 -2.50326,6.04282 -1.67503,1.61577 -3.25042,2.17041 -6.10741,2.15021 l -2.44653,-0.0173 -0.27892,1.08981 c -1.0026,3.917523 -2.94391,6.366243 -5.70606,7.197533 -1.37826,0.4148 -4.01585,0.45783 -5.29734,0.0864 z m 1.49101,-24.179197 c -2.19689,-0.371991 -5.25086,-1.181356 -5.40545,-1.432557 -0.0547,-0.08885 1.04987,-0.161557 2.45457,-0.161557 2.1952,0 2.7398,-0.09293 3.87653,-0.661459 2.44795,-1.224325 3.19446,-3.328924 1.70804,-4.815348 -0.73202,-0.732014 -0.92657,-0.794297 -2.12222,-0.67941 -0.83932,0.08065 -1.66873,0.377217 -2.28877,0.818385 -0.53485,0.380548 -1.01034,0.654016 -1.05665,0.607709 -0.0463,-0.04631 0.21958,-0.627711 0.59086,-1.292006 1.25428,-2.244148 1.0285,-5.429861 -0.41735,-5.888754 -1.69295,-0.537324 -2.43609,0.538406 -2.88883,4.181729 -0.33551,2.700044 -0.77347,4.034628 -1.82603,5.564465 -1.40784,2.046227 -1.66676,2.047222 -1.05057,0.004 0.73843,-2.448505 0.7304,-5.44313 -0.0268,-10.003586 -0.46795,-2.818337 -0.57581,-4.234728 -0.4536,-5.956518 0.46158,-6.502676 4.14426,-10.586521 9.5466,-10.586521 2.68456,0 4.26105,0.644673 6.11809,2.501869 1.86884,1.868989 2.58282,3.4703 3.05625,6.854513 l 0.3106,2.220258 1.94085,0.124555 c 4.87532,0.312881 8.35972,3.798396 8.35972,8.362392 0,2.944799 -1.16587,5.324472 -3.52048,7.185684 -3.54742,2.804067 -10.72131,4.099261 -16.90535,3.052135 z m -33.02922,-3.289485 c -1.60463,-0.554164 -3.40429,-2.15234 -4.49659,-3.993171 -0.62546,-1.054081 -0.70633,-1.463712 -0.70515,-3.571875 0.002,-2.847618 0.51798,-4.199782 2.35311,-6.161678 1.62366,-1.735825 3.52207,-2.652339 6.27006,-3.027056 l 2.22341,-0.303186 v -3.059249 c 0,-3.575212 0.41414,-4.796298 2.24896,-6.631123 1.75291,-1.752906 3.08967,-2.233939 6.21771,-2.237441 2.30535,-0.0026 2.8331,0.08572 4.10104,0.686175 1.75781,0.832437 2.68701,1.777776 3.47527,3.535641 0.53442,1.19177 0.61166,1.913079 0.77923,7.276042 0.1023,3.274219 0.38946,7.381875 0.63812,9.128125 0.4611,3.23813 0.41094,5.365821 -0.1724,7.312832 -0.61154,2.041136 -0.92855,1.740043 -1.0829,-1.028531 -0.23776,-4.264728 -1.85732,-7.962574 -4.1527,-9.481582 -1.20928,-0.800266 -2.7314,-0.945377 -3.35676,-0.320016 -0.69672,0.696722 -0.51456,2.471785 0.40557,3.951954 0.43938,0.706824 0.73385,1.285135 0.65436,1.285135 -0.0795,0 -0.88968,-0.416719 -1.80044,-0.926042 -2.12791,-1.189998 -3.3247,-1.231485 -4.40354,-0.152643 -0.84656,0.846563 -0.92873,1.242025 -0.46812,2.252956 0.42814,0.939652 2.05574,1.636244 4.98639,2.1341 1.38245,0.234849 3.10886,0.698603 3.83646,1.030565 1.286,0.586724 3.16938,1.972583 2.96224,2.179722 -0.0565,0.05655 -0.92477,-0.221866 -1.9294,-0.618699 -1.62439,-0.641646 -2.16341,-0.720243 -4.8693,-0.710017 -2.64238,0.01 -3.52323,0.139269 -6.69493,0.982652 -4.1256,1.097029 -5.02136,1.156547 -7.0197,0.46641 z"
       id="path1036"
       inkscape:connector-curvature="0"
       inkscape:export-xdpi="95.932327"
       inkscape:export-ydpi="95.932327"
       inkscape:label="luck" />
    <path
       style="display:none;fill:#000000;stroke-width:0.264583"
       d="m -361.17515,-36.96911 c -3.52921,-0.44043 -8.21977,-1.94999 -11.37708,-3.66149 -8.62946,-4.67783 -14.50253,-12.22166 -16.98354,-21.81501 -0.80715,-3.121 -1.10542,-8.99992 -0.6352,-12.51945 1.23272,-9.22652 6.73211,-18.11082 14.37517,-23.22318 2.3988,-1.60453 5.22974,-3.16087 5.74956,-3.16087 0.17291,0 0.27213,1.29232 0.27213,3.54434 v 3.54434 l -2.51898,1.78557 c -12.84772,9.10708 -15.32113,26.75687 -5.47168,39.04493 4.98076,6.21394 12.90935,10.02458 20.85761,10.02458 h 2.2143 v -5.68351 -5.6835 l 0.72761,-0.16109 c 3.43861,-0.76133 5.66536,-1.98417 8.13593,-4.46791 3.24066,-3.25793 4.63021,-6.55655 4.63021,-10.99149 0,-4.05366 -1.32839,-7.50571 -4.01763,-10.44055 -2.42359,-2.64492 -5.19338,-4.23323 -8.75637,-5.02124 l -0.73545,-0.16266 0.074,-3.36642 0.074,-3.36643 0.92605,0.0817 c 1.6239,0.14329 4.83518,1.13491 6.74687,2.08338 6.32265,3.13695 10.76168,8.95347 12.17945,15.95887 0.58205,2.87597 0.40553,7.44967 -0.39642,10.27139 -1.64006,5.77072 -5.909,11.07666 -11.05429,13.73956 l -1.91709,0.99218 -0.001,5.87678 -10e-4,5.87678 -0.99219,0.26682 c -2.57689,0.69298 -8.95394,1.02676 -12.10469,0.63357 z m 17.59479,-6.11747 v -3.64998 l 1.91823,-1.33798 c 2.75762,-1.92345 4.46559,-3.5436 6.29467,-5.97097 8.21388,-10.90063 7.20795,-25.89474 -2.37582,-35.41326 -5.13646,-5.10149 -11.85026,-7.92013 -18.86781,-7.92122 l -2.3151,-3.7e-4 v 5.6835 5.68351 l -0.72761,0.16081 c -4.60882,1.01863 -8.62068,3.90924 -10.85944,7.82439 -2.51354,4.3957 -2.51672,10.86932 -0.007,15.25749 1.06266,1.85839 3.33513,4.28351 5.13071,5.47535 1.35102,0.89676 4.05327,2.01274 5.73622,2.36895 l 0.72761,0.154 v 3.30225 3.30225 h -0.87046 c -1.08329,0 -3.56151,-0.62256 -5.47955,-1.37653 -6.25281,-2.45796 -11.27997,-8.1064 -13.25698,-14.89534 -0.83166,-2.85589 -0.90087,-8.86112 -0.13265,-11.50938 1.80347,-6.21696 6.00768,-11.56108 11.18654,-14.21959 l 1.93623,-0.99395 0.001,-5.87678 10e-4,-5.87678 0.99219,-0.26682 c 3.24373,-0.87231 9.62155,-1.07136 13.37203,-0.41733 6.81256,1.18801 13.19527,4.47025 18.00604,9.2594 4.54066,4.52028 7.35667,9.46271 9.10937,15.98809 0.62138,2.3134 0.68239,3.00065 0.69494,7.82772 0.0127,4.87596 -0.0405,5.5006 -0.67762,7.95114 -2.0974,8.06782 -6.30327,14.40845 -12.73946,19.2056 -1.82215,1.35824 -6.15886,3.93181 -6.62532,3.93181 -0.0944,0 -0.1716,-1.64249 -0.1716,-3.64998 z"
       id="path1049"
       inkscape:connector-curvature="0"
       inkscape:export-xdpi="95"
       inkscape:export-ydpi="95"
       inkscape:label="mental" />
    <path
       style="display:none;fill:#000000;stroke-width:0.264583"
       d="m -450.30194,97.798488 c -5.10632,-0.81896 -9.2072,-2.10389 -12.69753,-3.97852 -2.54933,-1.36923 -5.29414,-3.23577 -5.29414,-3.60015 0,-0.13438 1.87524,-3.55875 4.16719,-7.60972 l 4.16719,-7.3654 23.61406,-0.0111 c 21.04628,-0.01 23.61406,0.033 23.61406,0.39455 0,0.98865 -2.61697,5.50138 -4.90934,8.46572 -5.30708,6.86277 -13.44033,11.88178 -21.83471,13.47417 -1.99522,0.37849 -8.97715,0.5271 -10.82678,0.23046 z m -22.33848,-11.51238 c -4.1683,-4.71576 -7.36321,-11.36699 -8.54782,-17.79506 -0.69406,-3.76614 -0.60975,-10.17228 0.17604,-13.37691 2.92266,-11.91924 9.20538,-19.81682 20.09376,-25.25847 1.13853,-0.569 2.04919,-0.87718 2.18645,-0.73992 0.12938,0.12938 2.60479,4.32509 5.50091,9.32379 4.80635,8.29576 5.23498,9.13669 4.91378,9.64043 -0.19354,0.30353 -5.3751,9.24344 -11.51459,19.86646 -6.13948,10.62302 -11.25331,19.41165 -11.36407,19.5303 -0.11076,0.11864 -0.76076,-0.41714 -1.44446,-1.19062 z m 42.3457,-15.36312 c -0.20784,-0.32742 -3.32258,-5.715 -6.92163,-11.9724 -3.59906,-6.25739 -9.02294,-15.67098 -12.05307,-20.91908 -3.03013,-5.24811 -5.58108,-9.72897 -5.66876,-9.95749 -0.1308,-0.34084 0.28317,-0.5016 2.30455,-0.89494 3.30151,-0.64243 9.46126,-0.6516 12.91502,-0.0192 10.39723,1.90371 18.95723,7.835 24.45537,16.94531 1.49278,2.47349 2.03212,3.66422 3.21376,7.09515 1.35489,3.93394 1.79708,6.65739 1.79538,11.05757 -0.001,3.41776 -0.55937,8.2476 -1.04343,9.03084 -0.078,0.12627 -4.29931,0.22957 -9.38059,0.22957 h -9.2387 z"
       id="habilet__"
       inkscape:connector-curvature="0"
       inkscape:export-xdpi="95"
       inkscape:export-ydpi="95"
       inkscape:label="habileté" />
    <path
       style="display:none;fill:#000000;stroke-width:0.264583"
       d="m -409.10785,175.41161 c -0.93789,-2.9452 -1.78503,-5.65256 -1.88255,-6.01637 -0.0975,-0.3638 -0.7536,-2.50692 -1.45796,-4.7625 -0.70436,-2.25557 -1.48531,-4.81541 -1.73544,-5.68854 -0.25013,-0.87312 -0.91432,-2.99418 -1.47597,-4.71346 -0.56165,-1.71928 -1.02119,-3.29848 -1.02119,-3.50932 0,-0.21085 -0.10648,-0.5901 -0.23663,-0.84279 -0.13015,-0.25269 -0.53976,-1.5296 -0.91026,-2.83759 -0.55171,-1.94774 -0.61663,-2.48194 -0.35868,-2.95161 0.29757,-0.54181 2.74373,-3.74401 3.87331,-5.07043 l 0.52,-0.61063 2.45874,0.92259 c 1.3523,0.50742 2.65739,0.99958 2.90021,1.09368 0.37166,0.14404 0.46696,-0.0727 0.60262,-1.37029 0.0886,-0.84777 0.34952,-2.88184 0.57976,-4.52015 l 0.41861,-2.97875 1.22772,-1.17003 c 0.67525,-0.64351 1.58491,-1.44373 2.02148,-1.77825 0.43656,-0.33453 1.15093,-0.94087 1.5875,-1.34743 0.43656,-0.40656 1.06421,-0.80954 1.39478,-0.89551 0.56867,-0.14789 3.59682,0.77769 4.14824,1.26795 0.13824,0.12292 0.41805,0.22348 0.62178,0.22348 0.60202,0 4.64431,2.01006 5.12988,2.55086 0.38394,0.42761 0.41385,0.7763 0.21273,2.4791 -0.12873,1.08982 -0.41842,4.00556 -0.64377,6.47941 -0.22535,2.47386 -0.5291,5.80761 -0.67501,7.40834 -0.14591,1.60073 -0.40673,3.8426 -0.5796,4.98193 -0.31009,2.04369 -0.33053,2.08252 -1.52209,2.89049 -0.66428,0.45043 -1.92215,1.41103 -2.79528,2.13468 -0.87312,0.72364 -1.96226,1.47326 -2.4203,1.66581 l -0.83281,0.35009 -0.16205,3.38121 c -0.0891,1.85966 -0.29527,4.63136 -0.45811,6.15933 -0.41932,3.93473 -0.43083,4.10145 -0.46595,6.74688 l -0.0316,2.38125 -2.42876,1.32291 c -1.33581,0.72761 -2.75935,1.47044 -3.16342,1.65075 l -0.73467,0.32782 z m 1.79202,-4.40687 c 0.0879,-1.80691 0.27342,-4.30722 0.4123,-5.55625 0.13888,-1.24902 0.33011,-3.91596 0.42496,-5.92652 0.12194,-2.58479 0.26146,-3.62141 0.47632,-3.53896 1.40062,0.53747 5.57455,1.77057 5.99321,1.77057 0.46323,0 0.526,-0.17941 0.526,-1.50343 0,-1.84417 0.85177,-9.48051 1.74643,-15.65722 0.3659,-2.52611 0.61934,-4.63886 0.5632,-4.695 -0.2087,-0.2087 -5.67279,-2.82225 -7.18909,-3.43864 -0.86468,-0.3515 -1.64915,-0.54885 -1.74324,-0.43855 -0.28674,0.33611 -0.75894,3.45946 -1.05035,6.94742 -0.50054,5.99111 -1.03186,8.99583 -1.59072,8.99583 -0.12479,0 -1.93126,-0.66463 -4.01438,-1.47697 -4.72563,-1.84281 -5.08348,-1.93575 -4.89574,-1.27147 0.0776,0.27472 0.63284,2.28542 1.23376,4.46823 0.60093,2.18282 1.25994,4.40497 1.46447,4.93812 0.20452,0.53316 1.08076,3.33113 1.94719,6.21771 1.62225,5.4047 3.53133,11.53799 4.59093,14.74924 l 0.60316,1.82799 0.1709,-1.5634 c 0.094,-0.85987 0.2428,-3.04178 0.33069,-4.8487 z"
       id="path4865"
       inkscape:connector-curvature="0"
       inkscape:export-xdpi="95.932327"
       inkscape:export-ydpi="95.932327"
       inkscape:label="eclair" />
    <path
       style="display:none;fill:#000000;stroke-width:0.264583"
       d="m -395.04183,320.21482 c -6.04945,-3.53535 -7.98008,-4.65234 -17.55353,-10.15574 l -4.1423,-2.38125 -0.0681,-16.47032 c -0.0375,-9.05867 0.0332,-16.47031 0.15714,-16.47031 0.12391,0 2.00005,1.02645 4.16919,2.28101 2.16915,1.25455 5.8489,3.38236 8.17723,4.72848 2.32834,1.34611 6.83349,3.95107 10.01146,5.78879 3.17797,1.83771 5.87983,3.3413 6.00413,3.3413 0.18908,0 5.40012,-2.96125 13.48545,-7.66331 10.55032,-6.13559 14.18448,-8.21168 14.37438,-8.21168 0.0977,0 0.1766,7.41164 0.17526,16.47031 l -0.002,16.47031 -1.78349,1.02717 c -6.19106,3.56565 -8.69447,4.97127 -8.92628,5.01197 -0.145,0.0254 -0.38312,0.17981 -0.52917,0.34301 -0.42701,0.47717 -16.46159,9.62634 -16.84783,9.6132 -0.19314,-0.007 -3.20861,-1.68189 -6.70111,-3.72294 z m 31.47016,-15.55503 c 0.0815,-0.13195 -0.09,-0.17759 -0.38125,-0.10143 -0.6178,0.16156 -0.6959,0.34134 -0.14828,0.34134 0.2097,0 0.44798,-0.10796 0.52953,-0.23991 z m -44.17016,-23.04342 c -0.0899,-0.14552 -0.28258,-0.26459 -0.4281,-0.26459 -0.14552,0 -0.191,0.11907 -0.10107,0.26459 0.0899,0.14552 0.28259,0.26458 0.42811,0.26458 0.14552,0 0.191,-0.11906 0.10106,-0.26458 z m 74.6125,41.36511 c -0.87313,-0.52158 -3.55203,-2.08473 -5.95313,-3.47366 -2.40109,-1.38893 -5.51404,-3.19013 -6.91766,-4.00266 -1.40362,-0.81253 -4.94385,-2.84655 -7.86717,-4.52004 l -5.31514,-3.04271 -0.004,-16.58411 -0.004,-16.58411 5.6224,3.25691 c 3.09231,1.7913 8.95614,5.19179 13.03072,7.55663 9.47013,5.49635 9.1022,5.28905 9.38744,5.28905 0.20271,0 10.28024,-5.77757 24.92957,-14.29243 2.41763,-1.40525 3.15738,-1.72588 3.3755,-1.46307 0.19097,0.23011 0.25775,5.42624 0.21112,16.42717 l -0.0682,16.09059 -2.34964,1.40845 c -1.29231,0.77466 -2.37821,1.40846 -2.41312,1.40846 -0.0349,0 -1.41835,0.78889 -3.07432,1.75308 -1.65596,0.9642 -4.97537,2.88528 -7.37646,4.26907 -2.4011,1.38379 -6.29534,3.631 -8.65388,4.99379 -2.35854,1.3628 -4.44213,2.47334 -4.63021,2.46787 -0.18807,-0.005 -1.05633,-0.43669 -1.92945,-0.95828 z m -31.9003,-51.40854 c -2.97327,-1.70479 -8.02533,-4.62336 -11.22678,-6.4857 -3.20146,-1.86234 -6.47898,-3.75695 -7.28338,-4.21024 -0.8044,-0.4533 -2.0842,-1.18136 -2.84401,-1.61792 l -1.38145,-0.79375 -2.7e-4,-16.61822 c -1.4e-4,-9.14002 0.089,-16.56566 0.19817,-16.50143 0.44484,0.26181 17.50645,10.10418 22.50387,12.98186 l 5.37209,3.09343 6.26957,-3.63179 c 3.44826,-1.99749 8.05551,-4.66046 10.23832,-5.91773 2.18281,-1.25727 5.54945,-3.19962 7.48143,-4.31634 1.93197,-1.11672 3.62861,-2.03041 3.77031,-2.03041 0.16437,0 0.25764,5.96574 0.25764,16.47941 v 16.47942 l -0.72761,0.41462 c -1.01414,0.57791 -8.33368,4.80427 -15.41198,8.89899 -3.27422,1.89411 -6.54843,3.77421 -7.27604,4.17802 -0.7276,0.40381 -2.04539,1.17591 -2.92842,1.7158 l -1.6055,0.9816 z m -17.52834,-33.66243 c -0.0845,-0.21107 -0.14715,-0.14837 -0.15985,0.15985 -0.0115,0.27892 0.051,0.43519 0.13897,0.34727 0.0879,-0.0879 0.0973,-0.31612 0.0209,-0.50712 z m -6.46935,2.16628 c 0,-0.50933 0.0545,-0.71769 0.121,-0.46302 0.0666,0.25466 0.0666,0.67138 0,0.92604 -0.0665,0.25466 -0.121,0.0463 -0.121,-0.46302 z"
       id="path4893"
       inkscape:connector-curvature="0"
       inkscape:export-xdpi="2"
       inkscape:export-ydpi="2"
       inkscape:label="trading" />
    <path
       style="display:inline;fill:#000000;stroke-width:1.34765"
       d="M 32.257821,288.50705 C -0.35139456,201.49682 -1.8942713,195.91305 1.1304628,175.85595 6.7194773,138.79542 36.221901,108.78741 89.576253,85.89452 135.00762,66.401213 163.12812,45.258134 183.28673,15.436091 189.085,6.8583003 190.41094,5.6391153 193.5464,6.00244 c 4.03351,0.4675745 5.67403,3.1953076 10.52255,17.497758 8.84535,26.092307 6.32691,51.112174 -7.30167,72.538879 -5.48672,8.626243 -19.78755,23.819043 -27.36059,29.067143 l -5.25721,3.6433 v 26.02977 c 0,14.31634 -0.66812,29.2434 -1.48472,33.17128 -2.42085,11.64418 -9.15947,23.85396 -18.07323,32.74708 -14.94554,14.91098 -28.09517,19.48841 -56.078446,19.52116 -18.940309,0.0204 -26.203409,1.76129 -32.664695,7.82135 -6.161932,5.77926 -10.264252,15.84013 -10.281926,25.21623 -0.02036,10.4273 -3.273905,17.35229 -8.433285,17.94599 -2.851758,0.32803 -3.974928,-0.29288 -4.875357,-2.69533 z m 87.127989,-71.65964 c 9.45295,-4.85035 17.29376,-12.91262 21.61898,-22.22973 6.61383,-14.24709 5.04747,-34.74829 -3.48708,-45.64098 l -2.34292,-2.99031 -8.08596,3.58544 c -4.44725,1.972 -8.34104,3.77486 -8.65281,4.00636 -0.31172,0.23124 0.78705,1.86203 2.44178,3.62342 4.25751,4.53196 7.14284,15.03499 6.07906,22.12884 l -0.87313,5.82255 -2.41423,-3.96983 c -5.82606,-9.5802 -14.95447,-11.11192 -22.32096,-3.74543 -7.380257,7.38026 -5.835388,16.4946 3.78779,22.3468 l 4.01226,2.43999 -5.48796,0.92722 c -13.524604,2.28496 -28.901119,-6.70795 -31.90003,-18.65673 -0.490512,-1.95433 -1.224948,-3.55334 -1.632022,-3.55334 -1.059147,0 -15.139558,10.97153 -15.139558,11.79684 0,1.60461 6.134167,10.78532 9.982176,14.9398 3.975081,4.29165 13.782748,10.12892 21.014022,12.50698 1.853022,0.60939 8.523947,0.92977 14.824222,0.71203 9.3082,-0.32192 12.78977,-1.08081 18.57637,-4.04992 z"
       id="path863"
       inkscape:connector-curvature="0"
       inkscape:export-xdpi="96"
       inkscape:export-ydpi="96"
       inkscape:label="perception" />
    <flowRoot
       xml:space="preserve"
       id="flowRoot865"
       style="font-style:normal;font-weight:normal;font-size:40px;line-height:1.25;font-family:sans-serif;letter-spacing:0px;word-spacing:0px;display:none;fill:#000000;fill-opacity:1;stroke:none"
       transform="matrix(1.6080835,0,0,1.5477635,-578.21475,-228.61946)"
       inkscape:export-xdpi="96"
       inkscape:export-ydpi="96"
       inkscape:label="ps-T"><flowRegion
         id="flowRegion867"><rect
           id="rect869"
           width="240.41631"
           height="105.05586"
           x="363.65491"
           y="152.77324" /></flowRegion><flowPara
         id="flowPara871">ps-T</flowPara></flowRoot>
    <flowRoot
       xml:space="preserve"
       id="flowRoot839"
       style="font-style:normal;font-weight:normal;font-size:40px;line-height:1.25;font-family:sans-serif;letter-spacing:0px;word-spacing:0px;display:none;fill:#000000;fill-opacity:1;stroke:none"
       transform="matrix(2.217609,0,0,1.6250525,1091.7566,-14.957189)"
       inkscape:export-xdpi="211.82088"
       inkscape:export-ydpi="211.82088"
       inkscape:label="S"><flowRegion
         id="flowRegion841"><rect
           id="rect843"
           width="238.396"
           height="137.38075"
           x="-561.64484"
           y="5.290978" /></flowRegion><flowPara
         id="flowPara845">S</flowPara></flowRoot>
    <path
       style="display:none;fill:#000000;stroke-width:0.927842"
       d="m 1.07909,253.84342 c -0.34016096,-0.34016 -0.61856638,-2.16844 -0.61856638,-4.06271 0,-3.02204 0.3696172,-3.59066 3.01550608,-4.63927 4.5179635,-1.79054 33.1703883,-30.41266 33.1703883,-33.13531 0,-1.19243 -1.638838,-5.17547 -3.641857,-8.85119 -2.974792,-5.45906 -3.697055,-7.78783 -3.943337,-12.71415 l -0.301587,-6.03098 2.894275,-0.2816 c 3.427522,-0.3335 4.032236,1.05857 4.051874,9.32819 0.01055,5.1374 0.103102,5.33508 2.449472,5.33508 1.340232,0 4.993627,-1.28255 8.118615,-2.85012 4.563271,-2.28904 9.746162,-6.89979 26.326359,-23.4203 15.995055,-15.93745 20.644521,-21.09634 20.644521,-22.90642 0,-1.84535 -9.235507,-11.56594 -43.954533,-46.26332 C 6.0694206,60.157533 5.3080216,59.332801 3.6772155,53.946621 c -0.9121922,-3.0127 -1.369094,-5.767055 -1.0153972,-6.120785 0.3537323,-0.353698 3.0233959,-0.14378 5.9326104,0.466371 6.0069193,1.25996 1.1418874,-3.225318 63.3667563,58.420473 17.637081,17.47292 32.640645,31.769 33.341275,31.769 0.70059,0 14.45349,-13.07525 30.56199,-29.05607 63.8874,-63.381093 61.84721,-61.576769 69.88131,-61.801312 2.99759,-0.08382 2.9656,-0.276686 1.072,6.471889 -1.45353,5.18047 -2.25295,6.045986 -45.46432,49.224943 -34.7724,34.74629 -43.98475,44.44164 -43.98475,46.29074 0,1.81419 4.63196,6.95037 20.64452,22.8918 21.26196,21.16747 27.92908,26.28781 34.22884,26.28781 2.60962,0 2.65315,-0.087 2.6656,-5.33508 0.021,-8.26962 0.62436,-9.66179 4.05187,-9.32819 l 2.89428,0.2816 -0.28264,6.03098 c -0.23251,4.96304 -0.93095,7.21437 -3.94335,12.71415 -2.01329,3.67572 -3.66057,7.65876 -3.66057,8.85119 0,2.74291 28.65736,31.34631 33.2173,33.15474 2.8515,1.13088 3.04321,1.47696 2.78353,5.02585 -0.26827,3.66634 -0.40949,3.82221 -3.71223,4.09659 -3.22021,0.26757 -3.55697,0.0367 -5.42343,-3.71139 -1.15013,-2.30984 -7.91981,-9.9684 -16.04009,-18.14621 -16.1147,-16.22885 -16.18494,-16.25936 -24.96641,-10.83912 -3.6874,2.27598 -7.26032,3.60581 -11.43388,4.25555 -7.43893,1.15815 -8.755,0.72258 -8.755,-2.89772 v -2.81263 h 6.91272 c 8.14864,0 9.38915,-1.06618 7.48326,-6.43163 -2.52533,-7.10925 -6.10465,-11.44666 -25.89382,-31.37799 -15.8948,-16.00898 -21.02161,-20.64452 -22.83235,-20.64452 -1.80906,0 -6.965117,4.65049 -22.8888,20.64452 -16.750246,16.82423 -21.084207,21.71272 -23.420338,26.41708 -1.576592,3.17489 -2.866571,6.81071 -2.866571,8.07957 0,2.23574 0.222331,2.31545 7.190783,2.57804 l 7.190784,0.27107 0.287908,3.47943 c 0.287208,3.46823 0.276688,3.47929 -3.247445,3.43898 -6.407678,-0.0733 -11.381001,-1.52612 -16.913836,-4.94124 -3.002004,-1.85292 -6.451688,-3.36894 -7.665957,-3.36894 -3.217778,0 -29.755385,25.59655 -32.83177,31.66752 -2.0459426,4.03741 -2.6172019,4.51837 -5.3668218,4.51837 -1.6924564,0 -3.3555607,-0.27844 -3.6957571,-0.61857 z"
       id="path52"
       inkscape:label="mastery" />
  </g>
</svg>
