<?xml version="1.0" standalone="no"?>
<!DOCTYPE svg PUBLIC "-//W3C//DTD SVG 20010904//EN"
 "http://www.w3.org/TR/2001/REC-SVG-20010904/DTD/svg10.dtd">
<svg version="1.0" xmlns="http://www.w3.org/2000/svg"
 width="268.000000pt" height="427.000000pt" viewBox="0 0 268.000000 427.000000"
 preserveAspectRatio="xMidYMid meet">

<g transform="translate(0.000000,427.000000) scale(0.100000,-0.100000)"
fill="#000000" stroke="none">
<path d="M1115 4260 c-165 -34 -395 -150 -532 -267 l-53 -45 0 -99 c0 -54 3
-99 6 -99 3 0 27 18 52 41 124 109 324 215 493 261 72 19 108 23 254 23 155 0
179 -2 270 -28 169 -47 320 -129 512 -280 l23 -19 0 104 0 104 -67 51 c-140
105 -267 174 -416 225 -90 31 -96 32 -297 34 -113 2 -223 -1 -245 -6z"/>
<path d="M1124 3966 c-166 -38 -355 -141 -525 -288 -30 -26 -60 -48 -66 -48
-5 0 -57 36 -116 80 -78 59 -108 76 -115 67 -15 -18 -142 -255 -142 -265 0 -9
383 -232 397 -232 4 1 24 21 43 46 56 72 249 253 320 299 72 47 151 89 190
100 l25 7 -25 -18 c-127 -88 -190 -208 -190 -359 0 -126 36 -212 129 -308 46
-48 46 -48 16 -42 -109 24 -271 71 -349 101 -134 53 -376 171 -494 243 -56 34
-108 59 -114 55 -14 -9 -108 -208 -108 -229 0 -33 299 -196 495 -270 55 -21
104 -41 108 -45 5 -4 -6 -49 -23 -100 -17 -50 -30 -93 -28 -95 5 -5 235 -74
271 -80 l34 -7 16 59 c9 32 19 78 23 102 l7 44 75 -7 c41 -3 90 -6 109 -6 l33
0 0 -120 0 -120 215 0 215 0 0 114 c0 131 -8 120 105 131 39 3 78 8 87 11 18
5 36 -43 55 -145 13 -69 21 -70 182 -21 77 24 141 46 141 49 0 3 -13 47 -29
96 -16 50 -27 93 -23 96 4 3 43 19 86 34 112 41 343 155 442 220 l84 55 -13
32 c-29 69 -102 208 -108 208 -4 0 -52 -27 -108 -60 -124 -74 -288 -156 -415
-209 -165 -69 -417 -143 -432 -128 -4 3 13 28 36 54 51 57 96 148 112 226 15
70 2 161 -34 239 -27 58 -106 151 -153 180 -49 29 -10 21 58 -13 155 -78 304
-198 417 -338 36 -44 70 -80 75 -80 8 -1 295 163 384 218 11 7 1 36 -54 150
-38 77 -73 141 -78 141 -5 0 -58 -38 -118 -85 l-110 -85 -81 70 c-142 123
-266 196 -431 252 -88 31 -100 32 -267 35 -121 2 -194 -2 -236 -11z m298 -452
c16 -8 42 -33 58 -56 57 -78 34 -193 -48 -247 -111 -73 -259 0 -270 133 -12
142 133 236 260 170z"/>
<path d="M490 2513 c-12 -32 -49 -132 -81 -223 -33 -91 -64 -177 -70 -191 -6
-16 -26 -34 -51 -45 -44 -20 -61 -48 -72 -119 l-7 -41 43 -11 c61 -16 90 -50
90 -107 1 -66 -51 -116 -121 -116 -16 0 -33 -5 -36 -10 -8 -12 10 -197 31
-325 15 -92 54 -239 61 -231 2 2 15 50 27 107 28 124 61 200 120 284 52 73 95
112 185 169 l66 43 73 349 c93 443 89 419 64 433 -15 8 -286 91 -298 91 -1 0
-12 -26 -24 -57z"/>
<path d="M1993 2523 c-128 -38 -153 -49 -153 -65 0 -27 148 -719 160 -745 5
-12 41 -43 80 -68 87 -58 167 -146 214 -234 39 -75 86 -226 86 -278 0 -48 21
-38 38 18 27 93 63 318 65 409 l2 95 -40 5 c-78 12 -115 49 -115 116 0 52 27
88 78 104 20 7 41 16 45 20 5 4 4 33 -3 65 -11 52 -15 58 -60 86 -54 33 -49
24 -155 314 -36 99 -71 185 -78 191 -9 10 -46 2 -164 -33z"/>
<path d="M1183 2433 c-51 -4 -51 -4 -57 -41 -3 -20 -8 -183 -11 -362 -3 -179
-8 -429 -11 -557 l-6 -232 -33 -11 c-19 -6 -38 -16 -43 -23 -6 -7 -11 -50 -13
-96 l-4 -85 39 -8 c76 -16 136 -84 136 -155 0 -42 -36 -107 -72 -128 -18 -10
-51 -22 -73 -25 -26 -3 -41 -11 -43 -22 -3 -15 299 -629 331 -672 11 -15 18
-8 59 66 110 199 299 581 296 601 -2 17 -13 23 -48 29 -112 19 -168 122 -118
217 28 54 63 82 115 90 l38 7 -3 84 c-3 72 -7 87 -24 100 -66 49 -64 42 -71
224 -4 93 -7 273 -7 400 0 127 -3 315 -7 419 l-6 187 -156 -2 c-86 -1 -179 -3
-208 -5z"/>
</g>
</svg>
