<?xml version="1.0" standalone="no"?>
<!DOCTYPE svg PUBLIC "-//W3C//DTD SVG 20010904//EN"
 "http://www.w3.org/TR/2001/REC-SVG-20010904/DTD/svg10.dtd">
<svg version="1.0" xmlns="http://www.w3.org/2000/svg"
 width="226.000000pt" height="223.000000pt" viewBox="0 0 226.000000 223.000000"
 preserveAspectRatio="xMidYMid meet">

<g transform="translate(0.000000,223.000000) scale(0.100000,-0.100000)"
fill="#000000" stroke="none">
<path d="M30 2214 c0 -9 8 -42 17 -72 17 -52 38 -75 490 -521 379 -373 473
-471 473 -491 0 -20 -50 -75 -232 -256 -205 -202 -241 -234 -296 -258 -34 -15
-72 -26 -85 -24 -20 3 -22 10 -27 83 -3 55 -9 80 -17 79 -48 -4 -46 0 -39 -71
5 -51 16 -84 47 -139 21 -39 39 -80 39 -90 0 -25 -302 -324 -357 -355 -47 -25
-56 -54 -27 -83 30 -31 59 -20 83 32 16 34 66 90 181 200 87 83 166 152 176
152 10 0 50 -19 88 -42 65 -38 77 -42 141 -42 68 -1 70 0 70 24 0 24 -3 25
-80 30 -72 5 -80 7 -83 27 -2 11 15 56 37 100 35 70 61 100 258 296 167 165
225 217 244 217 19 0 77 -53 251 -227 185 -187 232 -239 258 -291 18 -37 30
-75 28 -90 -3 -26 -6 -27 -80 -32 -42 -3 -79 -8 -83 -12 -4 -3 -4 -16 0 -29 7
-20 11 -21 74 -15 51 5 81 16 135 46 38 22 79 40 92 40 34 0 317 -277 350
-343 28 -55 40 -62 77 -48 21 8 27 17 27 39 0 23 -8 33 -42 51 -61 33 -358
330 -358 357 0 12 18 53 40 91 32 55 42 83 47 136 6 71 8 67 -39 71 -9 1 -15
-24 -18 -79 -5 -78 -6 -80 -32 -83 -15 -2 -54 10 -90 28 -52 26 -103 72 -291
258 -176 176 -227 232 -227 252 0 20 98 122 473 491 452 446 473 469 490 521
22 71 22 91 0 84 -10 -2 -38 -10 -63 -17 -40 -12 -96 -64 -521 -486 -262 -260
-484 -473 -494 -473 -9 0 -29 9 -43 21 -15 11 -232 224 -482 473 -408 405
-460 454 -500 465 -25 7 -53 15 -62 17 -12 4 -18 0 -18 -12z"/>
</g>
</svg>
