<?xml version="1.0" standalone="no"?>
<!DOCTYPE svg PUBLIC "-//W3C//DTD SVG 20010904//EN"
 "http://www.w3.org/TR/2001/REC-SVG-20010904/DTD/svg10.dtd">
<svg version="1.0" xmlns="http://www.w3.org/2000/svg"
 width="379.000000pt" height="80.000000pt" viewBox="0 0 379.000000 80.000000"
 preserveAspectRatio="xMidYMid meet">

<g transform="translate(0.000000,80.000000) scale(0.100000,-0.100000)"
fill="#000000" stroke="none">
<path d="M358 441 c-197 -197 -358 -366 -358 -375 0 -21 44 -66 64 -66 8 0
162 146 343 324 l330 325 31 -32 31 -31 -249 -252 c-167 -168 -250 -259 -250
-273 0 -24 33 -61 55 -61 13 0 310 277 460 429 l70 71 165 -163 c206 -204 348
-337 360 -337 5 0 40 27 78 60 l69 60 68 -60 c37 -33 74 -60 82 -60 13 0 144
122 398 372 l130 128 110 -111 c159 -160 402 -389 414 -389 5 0 40 27 77 59
l68 59 69 -59 c37 -32 75 -59 83 -59 16 0 568 542 676 662 65 73 69 94 22 124
-23 15 -26 15 -57 -9 -17 -14 -169 -160 -337 -325 l-305 -299 -313 308 c-172
170 -324 316 -337 325 -24 16 -27 15 -65 -11 -23 -16 -39 -32 -38 -36 2 -4
117 -125 256 -268 l254 -261 -23 -31 -22 -31 -126 124 c-459 451 -541 528
-557 528 -9 0 -117 -99 -238 -220 l-221 -219 40 -41 40 -40 191 184 191 185
28 -29 c15 -15 26 -33 24 -38 -2 -6 -101 -105 -220 -220 l-216 -211 -194 195
c-321 322 -466 456 -486 450 -10 -4 -31 -18 -47 -32 l-29 -26 261 -261 262
-262 -27 -33 -26 -34 -201 199 c-334 331 -464 453 -483 453 -10 0 -176 -159
-375 -359z"/>
<path d="M3394 771 c-21 -16 -126 -114 -233 -218 l-193 -188 43 -43 44 -43
218 219 c230 233 243 252 195 286 -29 21 -29 21 -74 -13z"/>
</g>
</svg>
