<?xml version="1.0" standalone="no"?>
<!DOCTYPE svg PUBLIC "-//W3C//DTD SVG 20010904//EN"
 "http://www.w3.org/TR/2001/REC-SVG-20010904/DTD/svg10.dtd">
<svg version="1.0" xmlns="http://www.w3.org/2000/svg"
 width="474.000000pt" height="219.000000pt" viewBox="0 0 474.000000 219.000000"
 preserveAspectRatio="xMidYMid meet">

<g transform="translate(0.000000,219.000000) scale(0.100000,-0.100000)"
fill="#000000" stroke="none">
<path d="M3240 2095 l0 -95 315 0 315 0 0 -755 0 -755 120 0 120 0 0 755 0
755 315 0 315 0 0 95 0 95 -750 0 -750 0 0 -95z"/>
<path d="M571 1788 c-128 -11 -243 -71 -310 -160 l-36 -49 -3 90 -3 91 -109 0
-110 0 0 -880 0 -880 110 0 110 0 0 335 0 336 43 -52 c91 -113 212 -164 382
-162 214 1 369 101 465 298 48 98 68 180 76 310 15 238 -49 444 -181 580 -112
115 -248 160 -434 143z m174 -203 c58 -28 124 -95 157 -158 78 -154 77 -451
-2 -608 -33 -63 -104 -134 -163 -160 -73 -33 -220 -34 -289 -2 -155 71 -238
258 -225 508 12 235 105 391 261 439 76 23 192 15 261 -19z"/>
<path d="M1885 1788 c-168 -12 -296 -73 -362 -172 -41 -60 -55 -112 -55 -201
0 -120 41 -201 130 -261 68 -46 127 -66 310 -109 178 -41 251 -67 291 -104 34
-32 55 -97 45 -146 -22 -117 -147 -173 -364 -162 -120 6 -228 32 -342 81 -57
25 -81 31 -84 22 -3 -7 -3 -55 -2 -107 l3 -94 55 -18 c195 -62 479 -80 632
-39 147 40 246 110 295 210 25 50 28 68 28 152 0 78 -4 104 -24 147 -52 116
-167 179 -431 238 -183 40 -248 64 -292 105 -36 35 -38 40 -38 96 0 102 50
152 177 179 134 29 287 15 446 -39 l97 -33 0 98 0 97 -32 11 c-129 41 -322 61
-483 49z"/>
<path d="M2710 1125 l0 -95 320 0 320 0 0 95 0 95 -320 0 -320 0 0 -95z"/>
</g>
</svg>
