<?xml version="1.0" standalone="no"?>
<!DOCTYPE svg PUBLIC "-//W3C//DTD SVG 20010904//EN"
 "http://www.w3.org/TR/2001/REC-SVG-20010904/DTD/svg10.dtd">
<svg version="1.0" xmlns="http://www.w3.org/2000/svg"
 width="267.000000pt" height="267.000000pt" viewBox="0 0 267.000000 267.000000"
 preserveAspectRatio="xMidYMid meet">
<metadata>
Created by potrace 1.16, written by Peter Selinger 2001-2019
</metadata>
<g transform="translate(0.000000,267.000000) scale(0.100000,-0.100000)"
fill="#000000" stroke="none">
<path d="M1125 2664 c-101 -20 -125 -27 -130 -34 -6 -9 87 -174 656 -1162
l274 -478 357 0 356 0 12 53 c7 28 15 140 17 247 6 228 -4 301 -68 487 -154
448 -531 778 -999 873 -78 16 -134 20 -277 19 -98 -1 -187 -3 -198 -5z"/>
<path d="M830 2580 c-96 -28 -325 -178 -436 -286 -172 -168 -281 -359 -360
-629 -28 -98 -29 -105 -29 -330 1 -216 2 -236 27 -326 54 -197 160 -408 275
-544 32 -38 67 -70 77 -70 22 0 866 1453 866 1491 0 29 -33 90 -225 420 -171
294 -163 284 -195 274z"/>
<path d="M772 793 c-121 -208 -272 -487 -272 -503 0 -23 120 -105 235 -160 98
-46 242 -93 354 -114 113 -22 413 -22 517 0 386 79 747 360 939 728 57 109 71
102 -197 109 -128 4 -526 7 -885 7 l-652 0 -39 -67z"/>
</g>
</svg>
