<?xml version="1.0" encoding="UTF-8" standalone="no"?>
<svg
   xmlns:dc="http://purl.org/dc/elements/1.1/"
   xmlns:cc="http://creativecommons.org/ns#"
   xmlns:rdf="http://www.w3.org/1999/02/22-rdf-syntax-ns#"
   xmlns:svg="http://www.w3.org/2000/svg"
   xmlns="http://www.w3.org/2000/svg"
   version="1.1"
   id="svg10"
   width="1251"
   height="1707"
   viewBox="0 0 1251 1707">
  <metadata
     id="metadata16">
    <rdf:RDF>
      <cc:Work
         rdf:about="">
        <dc:format>image/svg+xml</dc:format>
        <dc:type
           rdf:resource="http://purl.org/dc/dcmitype/StillImage" />
        <dc:title></dc:title>
      </cc:Work>
    </rdf:RDF>
  </metadata>
  <defs
     id="defs14" />
  <g
     id="g18">
    <path
       style="fill:#000000"
       d="M 604.35341,1689.3483 C 522.16105,1634.2352 452.60372,1578.252 379.55314,1508.4179 275.33089,1408.7846 190.97466,1295.5405 131.56043,1175.5 58.399788,1027.6862 18.828778,869.74446 7.0411662,678.5 3.4418324,620.10372 3.1323918,503.42604 6.3900763,433 8.559286,386.10508 15.012232,288.99988 20.012972,228 22.204159,201.27152 22.806201,196.23781 23.892059,195.56671 24.636062,195.10689 51.5675,193.77249 96.5,191.96912 247.0031,185.92867 361.14288,161.03076 462.27848,112.17992 511.22459,88.537822 553.25284,61.962001 595.31679,28.055511 625.15108,4.0069822 622.88823,5.5999568 625.33012,6.9271455 626.52355,7.5757859 631.55,11.505488 636.5,15.659817 727.89688,92.365411 831.36564,142.1505 950,166.50365 c 60.4099,12.40088 117.5081,18.31613 212.5,22.01451 20.9,0.81371 44.1801,1.77407 51.7335,2.13413 l 13.7335,0.65466 0.4669,3.09652 c 0.2568,1.70309 0.7127,6.47153 1.0132,10.59653 0.3004,4.125 2.1057,28.65 4.0118,54.5 17.147,232.55171 18.5807,336.65297 6.473,470 -13.645,150.27739 -44.7336,276.4504 -98.1891,398.5 -10.4062,23.7595 -35.883,74.6404 -48.319,96.5 -50.0712,88.0138 -102.72668,158.3008 -177.7807,237.31 -56.83609,59.8312 -122.78976,117.9832 -197.1431,173.8229 -22.82511,17.1418 -82.66766,58.8895 -94.14659,65.6791 -0.6332,0.3746 -9.58832,-4.9823 -20,-11.9637 z"
       id="path22" />
  </g>
</svg>
