<?xml version="1.0" standalone="no"?>
<!DOCTYPE svg PUBLIC "-//W3C//DTD SVG 20010904//EN"
 "http://www.w3.org/TR/2001/REC-SVG-20010904/DTD/svg10.dtd">
<svg version="1.0" xmlns="http://www.w3.org/2000/svg"
 width="479.000000pt" height="665.000000pt" viewBox="0 0 479.000000 665.000000"
 preserveAspectRatio="xMidYMid meet">

<g transform="translate(0.000000,665.000000) scale(0.100000,-0.100000)"
fill="#000000" stroke="none">
<path d="M1726 6597 c-48 -74 -266 -469 -368 -663 -50 -97 -77 -159 -71 -165
13 -13 716 -347 745 -354 27 -6 28 -4 213 300 193 317 295 501 295 530 0 105
-492 381 -717 402 l-61 6 -36 -56z"/>
<path d="M2672 6143 c-27 -43 -145 -239 -262 -436 -182 -306 -211 -360 -199
-372 8 -8 109 -64 224 -126 237 -126 264 -143 297 -196 22 -36 23 -47 22 -188
-1 -104 -7 -173 -19 -225 -9 -41 -20 -86 -22 -100 -6 -26 113 142 536 759 272
397 286 419 276 458 -9 39 -155 179 -265 255 -190 132 -426 248 -504 248 -32
0 -38 -5 -84 -77z"/>
<path d="M1030 5684 c-47 -17 -69 -40 -149 -158 -173 -257 -811 -1255 -850
-1329 -37 -73 -40 -150 -8 -221 22 -47 585 -863 1303 -1888 l152 -218 -113
-762 c-63 -420 -125 -837 -138 -928 -14 -91 -23 -167 -20 -170 3 -3 578 -6
1279 -8 l1274 -3 0 801 0 800 191 381 c224 449 497 1011 546 1124 51 117 63
194 69 420 l5 200 -83 -86 c-46 -47 -233 -242 -417 -432 -183 -191 -336 -347
-338 -347 -3 0 -159 79 -347 175 -189 96 -348 175 -354 175 -14 0 -26 -58
-112 -510 -103 -547 -112 -590 -120 -590 -3 0 -26 73 -50 163 -159 599 -395
1031 -754 1375 -172 165 -315 265 -589 412 -112 60 -118 65 -112 89 8 31 192
388 204 396 5 2 50 -13 100 -35 50 -22 133 -52 184 -67 82 -25 108 -28 237
-28 127 0 154 3 219 24 146 48 285 166 353 300 28 54 32 74 33 140 l0 76 -180
90 c-236 119 -1034 502 -1200 576 -127 56 -185 73 -215 63z m1557 -4117 c110
-29 129 -31 283 -31 105 1 199 7 260 17 52 9 96 15 97 13 2 -2 -74 -60 -169
-129 -95 -70 -183 -134 -194 -144 -19 -16 -31 -69 -93 -443 -88 -525 -102
-602 -110 -594 -3 3 -16 242 -27 531 l-22 525 -181 182 c-99 100 -181 185
-181 188 0 3 49 -14 110 -39 60 -24 163 -58 227 -76z"/>
<path d="M3603 5458 c-57 -59 -129 -155 -460 -608 -348 -478 -473 -656 -473
-677 0 -68 345 -397 505 -482 l39 -21 34 33 c30 28 602 659 941 1037 108 121
112 126 107 164 -7 62 -87 168 -240 321 -147 146 -331 285 -378 285 -15 0 -42
-18 -75 -52z"/>
<path d="M4249 4593 c-115 -120 -683 -750 -813 -902 -58 -68 -106 -131 -106
-141 0 -62 240 -324 354 -385 l34 -19 44 36 c55 45 410 360 548 487 345 316
480 445 480 461 0 32 -78 172 -148 265 -116 155 -251 285 -298 285 -6 0 -49
-39 -95 -87z"/>
</g>
</svg>
