<?xml version="1.0" standalone="no"?>
<!DOCTYPE svg PUBLIC "-//W3C//DTD SVG 20010904//EN"
 "http://www.w3.org/TR/2001/REC-SVG-20010904/DTD/svg10.dtd">
<svg version="1.0" xmlns="http://www.w3.org/2000/svg"
 width="227.000000pt" height="307.000000pt" viewBox="0 0 227.000000 307.000000"
 preserveAspectRatio="xMidYMid meet">
<metadata>
Created by potrace 1.16, written by Peter Selinger 2001-2019
</metadata>
<g transform="translate(0.000000,307.000000) scale(0.100000,-0.100000)"
fill="#000000" stroke="none">
<path d="M614 3051 c-59 -27 -119 -84 -146 -139 -18 -39 -23 -68 -26 -168 l-4
-120 -79 -12 c-104 -15 -174 -50 -238 -117 -66 -70 -82 -110 -89 -217 -4 -80
-2 -92 22 -142 31 -64 99 -130 164 -159 66 -29 133 -26 292 13 174 43 321 48
413 12 103 -39 119 -22 31 34 -37 24 -85 43 -142 56 -157 37 -190 48 -221 74
-40 33 -40 65 0 98 41 35 74 33 154 -10 37 -19 69 -33 72 -31 2 3 -7 27 -20
54 -35 71 -41 101 -22 129 34 52 128 17 190 -70 45 -63 72 -148 88 -271 7 -55
17 -100 24 -102 38 -13 48 174 25 462 -7 88 -16 228 -21 311 -7 119 -13 159
-29 190 -28 54 -68 93 -127 120 -43 21 -65 24 -160 24 -86 0 -119 -5 -151 -19z"/>
<path d="M1403 2985 c-211 -65 -298 -278 -248 -603 27 -180 29 -245 10 -347
-10 -52 -15 -98 -12 -101 10 -10 44 35 77 101 19 39 35 95 46 162 9 57 25 116
35 133 31 50 90 35 105 -27 10 -38 -3 -117 -26 -163 -12 -23 -19 -44 -16 -47
3 -3 29 6 57 21 68 34 109 34 143 0 52 -53 23 -130 -67 -173 -32 -16 -64 -21
-123 -22 -82 0 -132 -12 -104 -23 8 -3 51 -15 95 -26 341 -87 713 -6 831 182
34 54 57 151 51 214 -13 128 -102 236 -224 274 -36 11 -87 20 -114 20 -48 0
-48 0 -54 38 -15 93 -37 180 -56 219 -31 63 -128 149 -191 168 -62 18 -158 18
-215 0z"/>
<path d="M630 1974 c-209 -26 -451 -113 -546 -196 -116 -102 -114 -316 4 -419
53 -47 128 -78 208 -85 l71 -7 6 -67 c8 -91 39 -159 96 -213 65 -61 120 -80
218 -75 96 4 172 37 231 98 83 86 98 152 111 460 7 178 12 215 34 283 13 42
21 77 17 77 -23 0 -73 -82 -96 -157 -26 -87 -44 -106 -80 -93 -33 13 -37 26
-36 106 0 41 -1 74 -2 74 -2 0 -20 -14 -41 -30 -21 -17 -55 -35 -76 -42 -34
-10 -42 -9 -59 7 -48 43 -4 137 84 179 28 14 74 28 101 31 101 12 118 16 108
26 -29 29 -248 56 -353 43z"/>
<path d="M1219 1851 c31 -56 130 -109 264 -141 102 -23 137 -39 166 -76 45
-57 14 -105 -72 -112 -56 -4 -95 10 -179 65 -49 33 -68 26 -35 -13 49 -58 47
-113 -4 -139 -27 -14 -33 -14 -65 1 -72 34 -142 172 -145 283 -1 25 -4 60 -8
76 -11 52 -22 2 -28 -130 -6 -127 6 -270 32 -370 24 -96 88 -215 146 -275 74
-74 113 -90 230 -90 82 0 102 3 147 26 28 14 66 42 83 62 36 41 84 139 94 195
l7 37 82 0 c122 0 178 20 246 88 72 72 90 122 90 246 0 148 -27 204 -121 251
-65 34 -126 32 -279 -6 -216 -54 -360 -51 -555 12 -109 34 -109 34 -96 10z"/>
<path d="M1064 1365 c4 -149 10 -222 25 -287 68 -296 203 -558 414 -803 93
-109 273 -282 282 -273 3 3 -7 32 -22 64 -24 51 -28 71 -28 154 l0 95 -146
145 c-198 197 -306 359 -396 594 -41 109 -86 280 -103 396 -23 153 -31 125
-26 -85z"/>
</g>
</svg>
