<?xml version="1.0" standalone="no"?>
<!DOCTYPE svg PUBLIC "-//W3C//DTD SVG 20010904//EN"
 "http://www.w3.org/TR/2001/REC-SVG-20010904/DTD/svg10.dtd">
<svg version="1.0" xmlns="http://www.w3.org/2000/svg"
 width="64.000000pt" height="92.000000pt" viewBox="0 0 64.000000 92.000000"
 preserveAspectRatio="xMidYMid meet">
<metadata>
Created by potrace 1.16, written by Peter Selinger 2001-2019
</metadata>
<g transform="translate(0.000000,92.000000) scale(0.100000,-0.100000)"
fill="#000000" stroke="none">
<path d="M175 894 c-70 -36 -113 -79 -146 -149 -24 -49 -29 -73 -29 -132 0
-65 4 -79 40 -145 81 -148 93 -178 101 -265 8 -90 21 -116 84 -172 31 -27 43
-31 94 -31 57 0 59 1 118 58 l61 57 5 89 c4 56 13 102 25 125 10 20 39 76 65
124 43 80 47 94 47 156 0 37 -7 88 -16 114 -21 62 -92 139 -156 171 -45 23
-65 26 -147 26 -83 0 -103 -4 -146 -26z m260 -62 c102 -52 165 -176 136 -264
-12 -37 -109 -216 -131 -242 -15 -19 -21 -20 -44 -3 -18 13 -18 17 9 82 31 79
28 119 -11 159 -54 54 -141 39 -170 -29 -20 -48 -17 -81 10 -148 23 -55 23
-58 6 -67 -29 -16 -40 -12 -51 17 -6 15 -33 67 -61 115 -27 48 -54 106 -59
129 -21 91 46 208 145 256 42 20 62 23 116 20 39 -2 81 -12 105 -25z"/>
<path d="M343 813 c-4 -11 1 -22 16 -32 77 -55 120 -93 126 -111 11 -34 65
-19 65 19 0 23 -47 78 -95 111 -49 34 -102 40 -112 13z"/>
</g>
</svg>
