<?xml version="1.0" standalone="no"?>
<!DOCTYPE svg PUBLIC "-//W3C//DTD SVG 20010904//EN"
 "http://www.w3.org/TR/2001/REC-SVG-20010904/DTD/svg10.dtd">
<svg version="1.0" xmlns="http://www.w3.org/2000/svg"
 width="196.000000pt" height="109.000000pt" viewBox="0 0 196.000000 109.000000"
 preserveAspectRatio="xMidYMid meet">
<metadata>
Created by potrace 1.16, written by Peter Selinger 2001-2019
</metadata>
<g transform="translate(0.000000,109.000000) scale(0.100000,-0.100000)"
fill="#000000" stroke="none">
<path d="M389 1076 c-138 -39 -279 -157 -345 -291 -39 -78 -39 -80 -43 -213
-3 -119 0 -141 19 -195 31 -84 79 -155 153 -223 167 -155 411 -188 609 -82 50
26 237 184 290 245 17 19 11 26 -191 230 -115 116 -222 218 -238 226 -108 55
-255 10 -318 -97 -95 -161 20 -366 205 -366 67 0 124 25 192 82 l50 41 50 -50
50 -50 -63 -52 c-35 -28 -89 -64 -119 -79 -49 -24 -66 -27 -155 -27 -90 1
-106 4 -160 30 -76 37 -159 119 -191 190 -24 51 -25 65 -22 168 4 137 22 181
115 267 82 77 143 100 266 100 86 0 98 -3 167 -36 l75 -35 48 50 c27 28 47 56
45 63 -6 18 -116 76 -187 98 -74 23 -227 26 -302 6z m219 -480 c52 -50 51 -54
-22 -108 -49 -35 -70 -35 -107 1 -37 37 -38 79 -3 120 38 46 74 42 132 -13z"/>
<path d="M1265 1056 c-58 -18 -102 -43 -166 -92 -78 -60 -219 -194 -219 -208
0 -16 366 -388 418 -425 144 -101 347 -2 369 179 9 78 -12 137 -71 196 -59 59
-118 80 -196 71 -59 -7 -99 -27 -164 -80 l-48 -41 -46 49 -46 48 59 54 c102
91 193 120 326 104 92 -12 145 -40 213 -111 83 -87 111 -153 111 -265 0 -80
-3 -97 -32 -157 -39 -84 -103 -147 -191 -190 -60 -30 -75 -33 -157 -33 -81 0
-97 3 -159 33 -37 17 -73 32 -80 32 -21 -1 -108 -90 -103 -105 9 -21 103 -72
176 -95 46 -15 91 -20 165 -20 164 0 260 37 374 145 73 69 119 142 146 234 21
70 21 228 1 306 -46 177 -193 322 -375 370 -68 18 -249 19 -305 1z m219 -462
c33 -34 34 -73 0 -113 -38 -45 -78 -42 -138 10 -52 46 -52 50 18 101 49 35 85
36 120 2z"/>
</g>
</svg>
