<?xml version="1.0" standalone="no"?>
<!DOCTYPE svg PUBLIC "-//W3C//DTD SVG 20010904//EN"
 "http://www.w3.org/TR/2001/REC-SVG-20010904/DTD/svg10.dtd">
<svg version="1.0" xmlns="http://www.w3.org/2000/svg"
 width="219.000000pt" height="220.000000pt" viewBox="0 0 219.000000 220.000000"
 preserveAspectRatio="xMidYMid meet">

<g transform="translate(0.000000,220.000000) scale(0.100000,-0.100000)"
fill="#000000" stroke="none">
<path d="M936 2189 c-154 -23 -355 -104 -483 -195 -137 -98 -282 -271 -349
-418 -22 -49 -24 -60 -13 -71 8 -7 273 -207 589 -445 316 -238 583 -440 593
-450 17 -16 16 -19 -27 -78 -83 -112 -236 -217 -401 -273 -64 -22 -86 -24
-251 -24 l-182 0 47 -33 c78 -57 261 -141 366 -168 86 -23 121 -27 255 -28
164 -1 219 7 355 51 263 84 471 257 622 518 23 39 44 79 47 91 6 18 -48 63
-416 340 -683 514 -782 590 -785 600 -11 32 169 205 271 262 154 86 335 123
500 102 49 -6 91 -9 93 -6 7 7 -105 80 -184 120 -194 97 -434 136 -647 105z"/>
<path d="M1413 1885 c-99 -21 -99 -22 -42 -90 95 -115 139 -219 139 -332 0
-41 5 -57 23 -73 39 -38 625 -470 635 -470 32 0 26 302 -9 438 -57 224 -182
438 -283 486 -111 52 -323 71 -463 41z"/>
<path d="M0 1128 c0 -232 19 -316 115 -513 61 -127 133 -228 179 -252 17 -9
69 -27 116 -40 101 -27 255 -31 362 -8 105 22 106 23 55 81 -95 105 -139 204
-152 342 l-7 70 -237 174 c-318 236 -406 298 -420 298 -8 0 -11 -45 -11 -152z"/>
</g>
</svg>
