<?xml version="1.0" standalone="no"?>
<!DOCTYPE svg PUBLIC "-//W3C//DTD SVG 20010904//EN"
 "http://www.w3.org/TR/2001/REC-SVG-20010904/DTD/svg10.dtd">
<svg version="1.0" xmlns="http://www.w3.org/2000/svg"
 width="251.000000pt" height="251.000000pt" viewBox="0 0 251.000000 251.000000"
 preserveAspectRatio="xMidYMid meet">
<metadata>
Created by potrace 1.16, written by Peter Selinger 2001-2019
</metadata>
<g transform="translate(0.000000,251.000000) scale(0.100000,-0.100000)"
fill="#000000" stroke="none">
<path d="M1060 2503 c-14 -2 -49 -8 -77 -14 l-53 -10 0 -220 0 -219 -30 -18
c-16 -9 -57 -32 -90 -51 -166 -95 -326 -311 -377 -511 -24 -96 -21 -319 6
-423 58 -222 231 -435 436 -536 84 -42 216 -81 272 -81 l33 0 0 128 0 128 -50
13 c-101 26 -206 86 -278 159 -85 87 -126 157 -152 256 -25 100 -25 201 0 300
27 107 63 169 145 252 76 76 185 139 284 165 l51 13 0 214 0 215 113 -6 c277
-15 502 -119 693 -320 123 -129 199 -263 246 -434 19 -66 22 -104 22 -248 0
-155 -3 -178 -27 -260 -71 -237 -202 -422 -397 -562 l-80 -57 0 -143 c0 -79 4
-143 8 -143 4 0 48 23 97 51 311 179 500 407 612 742 l37 112 4 237 c3 228 3
240 -22 330 -66 241 -173 426 -347 599 -166 163 -408 290 -642 334 -74 14
-367 20 -437 8z"/>
<path d="M670 2374 c-343 -184 -575 -495 -654 -876 -19 -91 -22 -336 -5 -454
21 -151 98 -345 194 -490 185 -277 478 -471 817 -540 64 -13 119 -15 267 -11
102 2 212 10 244 17 l57 13 0 222 0 223 32 13 c111 46 271 189 351 314 93 145
127 269 127 459 0 319 -177 603 -467 750 -63 31 -213 76 -258 76 -32 0 -32 0
-39 -61 -3 -34 -6 -92 -6 -129 l0 -67 55 -12 c153 -34 324 -172 394 -316 65
-135 75 -299 26 -438 -60 -174 -243 -338 -420 -378 l-55 -12 0 -215 0 -215
-107 6 c-452 26 -826 329 -939 762 -22 82 -27 124 -27 230 -2 175 27 302 101
450 78 156 169 263 321 376 l101 74 0 100 c0 103 -8 175 -19 175 -3 0 -44 -21
-91 -46z"/>
</g>
</svg>
