<?xml version="1.0" standalone="no"?>
<!DOCTYPE svg PUBLIC "-//W3C//DTD SVG 20010904//EN"
 "http://www.w3.org/TR/2001/REC-SVG-20010904/DTD/svg10.dtd">
<svg version="1.0" xmlns="http://www.w3.org/2000/svg"
 width="250.000000pt" height="249.000000pt" viewBox="0 0 250.000000 249.000000"
 preserveAspectRatio="xMidYMid meet">
<metadata>
Created by potrace 1.16, written by Peter Selinger 2001-2019
</metadata>
<g transform="translate(0.000000,249.000000) scale(0.100000,-0.100000)"
fill="#000000" stroke="none">
<path d="M1137 2469 c-85 -45 -149 -135 -196 -276 -74 -221 -64 -550 22 -723
32 -64 53 -60 50 10 -2 30 -3 136 -4 235 -2 164 0 189 24 276 55 211 161 349
265 349 61 0 139 -84 190 -205 14 -34 27 -51 41 -53 30 -5 28 38 -5 130 -43
121 -101 204 -173 250 -38 24 -55 28 -110 28 -46 -1 -78 -7 -104 -21z"/>
<path d="M1662 1579 c-68 -12 -195 -54 -228 -76 -46 -30 -14 -37 100 -23 127
16 353 8 446 -15 218 -54 345 -145 357 -257 4 -35 -1 -51 -26 -90 -26 -41 -43
-53 -140 -100 -60 -29 -110 -56 -110 -60 -1 -3 12 -9 29 -13 63 -14 239 59
322 134 64 57 88 105 88 176 0 71 -24 119 -88 176 -59 54 -153 101 -258 130
-65 18 -111 22 -259 25 -99 1 -204 -2 -233 -7z"/>
<path d="M270 1527 c-123 -48 -197 -99 -244 -171 -22 -32 -26 -50 -26 -108 0
-79 12 -107 67 -160 88 -83 231 -144 402 -169 175 -25 449 9 570 71 51 26 49
46 -5 43 -21 -2 -121 -6 -221 -9 -148 -5 -196 -3 -264 11 -230 46 -389 154
-389 262 0 82 34 119 176 196 43 23 79 48 82 55 7 22 -60 13 -148 -21z"/>
<path d="M1444 1040 c30 -146 34 -340 11 -473 -38 -216 -141 -393 -242 -413
-77 -15 -136 34 -212 176 -28 53 -48 80 -56 76 -8 -3 -16 0 -19 7 -2 7 -5 0
-5 -14 -1 -14 10 -58 23 -97 67 -196 173 -302 301 -302 137 0 246 124 307 350
21 76 23 106 22 285 0 188 -2 205 -27 288 -38 124 -52 147 -83 145 -21 -2 -24
-6 -20 -28z"/>
</g>
</svg>
