<?xml version="1.0" standalone="no"?>
<!DOCTYPE svg PUBLIC "-//W3C//DTD SVG 20010904//EN"
 "http://www.w3.org/TR/2001/REC-SVG-20010904/DTD/svg10.dtd">
<svg version="1.0" xmlns="http://www.w3.org/2000/svg"
 width="300.000000pt" height="259.000000pt" viewBox="0 0 300.000000 259.000000"
 preserveAspectRatio="xMidYMid meet">
<metadata>
Created by potrace 1.16, written by Peter Selinger 2001-2019
</metadata>
<g transform="translate(0.000000,259.000000) scale(0.100000,-0.100000)"
fill="#000000" stroke="none">
<path d="M760 2152 l0 -437 375 -215 374 -215 1 -435 0 -435 360 -208 c198
-114 369 -207 380 -207 19 0 131 62 553 307 l197 115 0 434 c0 341 -3 434 -12
434 -16 0 -31 -9 -420 -233 -169 -97 -312 -177 -319 -177 -7 0 -174 93 -371
208 -268 155 -355 210 -344 217 7 6 169 100 360 209 l346 200 0 438 0 439 -21
-6 c-12 -4 -176 -97 -365 -206 -190 -109 -348 -199 -353 -199 -5 0 -169 92
-364 205 -196 113 -361 205 -366 205 -8 0 -11 -135 -11 -438z"/>
<path d="M2 860 l3 -441 355 -206 c195 -113 365 -208 378 -211 22 -4 124 48
350 182 57 34 111 66 121 71 10 6 77 44 149 85 l132 75 0 438 c0 240 -2 437
-5 437 -11 0 -72 -34 -397 -221 -179 -104 -332 -189 -338 -189 -6 0 -30 11
-53 24 -470 271 -629 361 -660 377 l-37 20 2 -441z"/>
</g>
</svg>
