<?xml version="1.0" standalone="no"?>
<!DOCTYPE svg PUBLIC "-//W3C//DTD SVG 20010904//EN"
 "http://www.w3.org/TR/2001/REC-SVG-20010904/DTD/svg10.dtd">
<svg version="1.0" xmlns="http://www.w3.org/2000/svg"
 width="106.000000pt" height="206.000000pt" viewBox="0 0 106.000000 206.000000"
 preserveAspectRatio="xMidYMid meet">
<metadata>
Created by potrace 1.16, written by Peter Selinger 2001-2019
</metadata>
<g transform="translate(0.000000,206.000000) scale(0.100000,-0.100000)"
fill="#000000" stroke="none">
<path d="M560 1983 c-52 -44 -103 -89 -112 -99 -12 -14 -23 -67 -39 -179 -12
-88 -24 -163 -28 -166 -3 -4 -52 11 -109 33 -89 35 -105 38 -115 26 -7 -8 -45
-58 -86 -112 -72 -93 -73 -97 -69 -144 3 -26 17 -85 31 -132 15 -47 58 -186
95 -310 194 -633 278 -893 289 -897 7 -3 63 22 125 55 l113 59 3 84 c1 46 9
154 17 239 8 85 17 207 21 271 6 113 7 117 33 129 14 6 74 48 133 93 90 67
110 87 117 116 19 72 84 753 79 821 -3 41 -5 44 -63 76 -91 50 -234 105 -290
111 l-51 5 -94 -79z m98 -220 l142 -66 -5 -31 c-28 -170 -85 -661 -85 -733 0
-65 1 -64 -139 -22 -57 17 -107 27 -111 22 -5 -4 -13 -80 -19 -168 -6 -88 -18
-250 -26 -360 -8 -110 -15 -211 -15 -225 -2 -36 -12 -5 -162 475 -144 466
-209 687 -202 695 3 2 40 -8 82 -24 233 -86 252 -92 262 -77 13 21 27 114 45
291 16 160 32 278 41 292 8 13 33 3 192 -69z"/>
</g>
</svg>
