<?xml version="1.0" standalone="no"?>
<!DOCTYPE svg PUBLIC "-//W3C//DTD SVG 20010904//EN"
 "http://www.w3.org/TR/2001/REC-SVG-20010904/DTD/svg10.dtd">
<svg version="1.0" xmlns="http://www.w3.org/2000/svg"
 width="380.000000pt" height="410.000000pt" viewBox="0 0 380.000000 410.000000"
 preserveAspectRatio="xMidYMid meet">

<g transform="translate(0.000000,410.000000) scale(0.100000,-0.100000)"
fill="#000000" stroke="none">
<path d="M1620 4094 c-610 -44 -1069 -204 -1341 -466 -223 -215 -318 -510
-264 -821 66 -380 354 -629 910 -786 232 -65 383 -93 883 -166 367 -53 513
-82 677 -136 348 -113 505 -258 546 -506 28 -179 -38 -367 -173 -488 -234
-211 -714 -315 -1309 -284 -462 23 -956 135 -1421 320 -54 21 -101 39 -103 39
-3 0 -5 -123 -5 -274 l0 -273 118 -31 c358 -94 746 -162 1157 -204 160 -16
753 -16 920 0 593 58 999 194 1268 426 218 189 332 473 314 784 -31 539 -440
881 -1259 1051 -79 16 -341 60 -583 96 -599 90 -806 138 -969 223 -139 73
-226 193 -246 342 -36 260 107 473 397 594 359 150 994 172 1578 55 200 -40
595 -150 742 -206 11 -4 13 41 13 255 0 240 -1 261 -17 266 -42 13 -300 67
-428 90 -167 30 -473 71 -640 86 -123 11 -667 21 -765 14z"/>
</g>
</svg>
