<?xml version="1.0" standalone="no"?>
<!DOCTYPE svg PUBLIC "-//W3C//DTD SVG 20010904//EN"
 "http://www.w3.org/TR/2001/REC-SVG-20010904/DTD/svg10.dtd">
<svg version="1.0" xmlns="http://www.w3.org/2000/svg"
 width="284.000000pt" height="170.000000pt" viewBox="0 0 284.000000 170.000000"
 preserveAspectRatio="xMidYMid meet">
<metadata>
Created by potrace 1.16, written by Peter Selinger 2001-2019
</metadata>
<g transform="translate(0.000000,170.000000) scale(0.100000,-0.100000)"
fill="#000000" stroke="none">
<path d="M701 999 c-386 -385 -701 -708 -701 -717 0 -10 58 -75 129 -146 147
-147 147 -147 212 -65 19 23 63 69 99 103 35 34 245 237 465 452 220 214 426
414 458 444 l58 54 52 -50 c29 -27 220 -215 425 -419 l372 -370 0 295 0 294
-415 413 c-257 256 -422 413 -434 413 -12 0 -280 -260 -720 -701z"/>
<path d="M2340 492 l0 -278 28 -27 c15 -15 33 -27 40 -27 9 0 12 69 12 278 l0
278 -28 27 c-15 15 -33 27 -40 27 -9 0 -12 -69 -12 -278z"/>
<path d="M2490 352 l0 -277 31 -38 c17 -20 39 -37 49 -37 23 0 270 256 270
280 0 20 -319 351 -337 350 -10 0 -13 -62 -13 -278z"/>
</g>
</svg>
